<svg width="643" height="643" viewBox="0 0 643 643" fill="none" xmlns="http://www.w3.org/2000/svg">
<path d="M177.671 346.031L213.813 328.696C249.954 311.361 259.357 284.623 242.022 248.482L224.687 212.341C207.352 176.2 180.614 166.797 144.473 184.132L108.332 201.466C72.1909 218.801 62.7878 245.539 80.1227 281.68L97.4576 317.821C114.792 353.962 141.53 363.366 177.671 346.031Z" stroke="#3385C3" stroke-opacity="0.24" stroke-width="1.5" stroke-miterlimit="10" stroke-linecap="round" stroke-linejoin="round"/>
<path d="M394.518 242.023L430.659 224.688C466.8 207.353 476.203 180.615 458.868 144.474L441.533 108.333C424.198 72.192 397.46 62.7889 361.319 80.1237L325.178 97.4586C289.037 114.793 279.634 141.531 296.969 177.673L314.304 213.814C331.639 249.955 358.377 259.358 394.518 242.023Z" stroke="#3385C3" stroke-opacity="0.24" stroke-width="1.5" stroke-miterlimit="10" stroke-linecap="round" stroke-linejoin="round"/>
<path d="M498.527 458.87L534.668 441.536C570.809 424.201 580.212 397.463 562.877 361.322L545.543 325.181C528.208 289.04 501.47 279.637 465.329 296.971L429.188 314.306C393.047 331.641 383.644 358.379 400.978 394.52L418.313 430.661C435.648 466.802 462.386 476.205 498.527 458.87Z" stroke="#3385C3" stroke-opacity="0.24" stroke-width="1.5" stroke-miterlimit="10" stroke-linecap="round" stroke-linejoin="round"/>
<path d="M281.681 562.878L317.822 545.543C353.963 528.209 363.366 501.471 346.031 465.329L328.696 429.188C311.361 393.047 284.623 383.644 248.482 400.979L212.341 418.314C176.2 435.649 166.797 462.387 184.132 498.528L201.467 534.669C218.802 570.81 245.54 580.213 281.681 562.878Z" stroke="#3385C3" stroke-opacity="0.24" stroke-width="1.5" stroke-miterlimit="10" stroke-linecap="round" stroke-linejoin="round"/>
</svg>
