<svg width="55" height="99" viewBox="0 0 55 99" fill="none" xmlns="http://www.w3.org/2000/svg">
<line x1="27.5" y1="52" x2="27.5" y2="99" stroke="#0066B4" stroke-opacity="0.8"/>
<circle cx="27.5" cy="27.5" r="25" fill="#0066B4" fill-opacity="0.8" stroke="white" stroke-width="5"/>
<path d="M31.7812 33H21.8008V30.9004L25.3848 27.2773C26.1074 26.5352 26.6868 25.9167 27.123 25.4219C27.5658 24.9206 27.8848 24.4648 28.0801 24.0547C28.2819 23.6445 28.3828 23.2051 28.3828 22.7363C28.3828 22.1699 28.2233 21.7467 27.9043 21.4668C27.5918 21.1803 27.1719 21.0371 26.6445 21.0371C26.0911 21.0371 25.554 21.1641 25.0332 21.418C24.5124 21.6719 23.9688 22.0332 23.4023 22.502L21.7617 20.5586C22.1719 20.207 22.6048 19.875 23.0605 19.5625C23.5228 19.25 24.0566 18.9993 24.6621 18.8105C25.2741 18.6152 26.0065 18.5176 26.8594 18.5176C27.7969 18.5176 28.6009 18.6868 29.2715 19.0254C29.9486 19.3639 30.4694 19.8262 30.834 20.4121C31.1986 20.9915 31.3809 21.6491 31.3809 22.3848C31.3809 23.1725 31.2246 23.8919 30.9121 24.543C30.5996 25.194 30.1439 25.8385 29.5449 26.4766C28.9525 27.1146 28.2363 27.821 27.3965 28.5957L25.5605 30.3242V30.4609H31.7812V33Z" fill="white"/>
</svg>
