<svg width="55" height="100" viewBox="0 0 55 100" fill="none" xmlns="http://www.w3.org/2000/svg">
<line x1="24.5" y1="53" x2="24.5" y2="100" stroke="white"/>
<circle cx="27.5" cy="27.5" r="25" fill="#0066B4" fill-opacity="0.8" stroke="white" stroke-width="5"/>
<path d="M31.2246 23.916C31.2246 24.5736 31.0879 25.1432 30.8145 25.625C30.541 26.1068 30.1699 26.5007 29.7012 26.8066C29.2389 27.1126 28.7181 27.3372 28.1387 27.4805V27.5391C29.2845 27.6823 30.1536 28.0339 30.7461 28.5938C31.3451 29.1536 31.6445 29.9023 31.6445 30.8398C31.6445 31.6732 31.4395 32.4186 31.0293 33.0762C30.6257 33.7337 30.0007 34.2513 29.1543 34.6289C28.3079 35.0065 27.2174 35.1953 25.8828 35.1953C25.0951 35.1953 24.3594 35.1302 23.6758 35C22.9987 34.8763 22.3607 34.6842 21.7617 34.4238V31.8555C22.3737 32.168 23.015 32.4056 23.6855 32.5684C24.3561 32.7246 24.9811 32.8027 25.5605 32.8027C26.6413 32.8027 27.3965 32.6172 27.8262 32.2461C28.2624 31.8685 28.4805 31.3411 28.4805 30.6641C28.4805 30.2669 28.3796 29.9316 28.1777 29.6582C27.9759 29.3848 27.6243 29.1764 27.123 29.0332C26.6283 28.89 25.9349 28.8184 25.043 28.8184H23.959V26.5039H25.0625C25.9414 26.5039 26.6087 26.4225 27.0645 26.2598C27.5267 26.0905 27.8392 25.8626 28.002 25.5762C28.1712 25.2832 28.2559 24.9512 28.2559 24.5801C28.2559 24.0723 28.0996 23.6751 27.7871 23.3887C27.4746 23.1022 26.9538 22.959 26.2246 22.959C25.7689 22.959 25.3522 23.0176 24.9746 23.1348C24.6035 23.2454 24.2682 23.3822 23.9688 23.5449C23.6693 23.7012 23.4056 23.8542 23.1777 24.0039L21.7812 21.9238C22.3411 21.5202 22.9954 21.1849 23.7441 20.918C24.4993 20.651 25.3978 20.5176 26.4395 20.5176C27.9108 20.5176 29.0762 20.8138 29.9355 21.4062C30.7949 21.9987 31.2246 22.8353 31.2246 23.916Z" fill="white"/>
</svg>
