<svg width="55" height="100" viewBox="0 0 55 100" fill="none" xmlns="http://www.w3.org/2000/svg">
<line x1="28.5" y1="53" x2="28.5" y2="100" stroke="white"/>
<circle cx="27.5" cy="27.5" r="25" fill="#0066B4" fill-opacity="0.8" stroke="white" stroke-width="5"/>
<path d="M33.1035 30.041H31.3848V33H28.4355V30.041H22.3418V27.9414L28.6016 18.7227H31.3848V27.6973H33.1035V30.041ZM28.4355 27.6973V25.2754C28.4355 25.0475 28.4388 24.7773 28.4453 24.4648C28.4583 24.1523 28.4714 23.8398 28.4844 23.5273C28.4974 23.2148 28.5104 22.9382 28.5234 22.6973C28.543 22.4499 28.556 22.2773 28.5625 22.1797H28.4844C28.3607 22.4466 28.2305 22.707 28.0938 22.9609C27.957 23.2083 27.7975 23.4688 27.6152 23.7422L24.998 27.6973H28.4355Z" fill="white"/>
</svg>
