<svg width="40" height="40" viewBox="0 0 40 40" fill="none" xmlns="http://www.w3.org/2000/svg">
<g clip-path="url(#clip0_5436_9361)">
<path d="M31.2102 8.39163C30.3393 9.10812 29.3497 9.69076 28.2801 10.1292C29.2306 9.14294 29.8165 7.82644 29.88 6.41523C28.9836 7.34561 27.9195 8.11386 26.7393 8.70618C25.4251 7.87121 23.823 7.61031 22.2002 8.04512C19.1736 8.85609 17.3634 11.9914 18.1813 15.0438C18.2986 15.4816 18.464 15.8929 18.6612 16.2679C14.0141 17.2647 9.34137 16.1563 5.73011 13.5488C5.47099 14.4878 5.4559 15.5133 5.72507 16.5179C6.23926 18.4369 7.66071 19.8781 9.41349 20.4437C8.49908 20.6887 7.58005 20.6589 6.72954 20.4727L6.73989 20.5113C7.45768 23.1902 9.96424 24.9204 12.6231 24.7463C11.8721 25.1852 11.0295 25.4441 10.1616 25.5024C10.8056 26.5066 11.7481 27.2837 12.8566 27.7246C13.9651 28.1654 15.1839 28.2477 16.3416 27.96C14.8029 30.0294 12.6061 31.5137 10.112 32.1691C9.67416 32.2864 9.22938 32.378 8.77769 32.4438C11.6457 33.3594 14.8014 33.4939 17.9181 32.6588C28.0668 29.9394 31.3865 20.0223 29.4298 12.7199C29.3642 12.4752 29.3021 12.2434 29.2237 12.0021C30.0985 10.9395 30.7635 9.71226 31.2102 8.39163Z" fill="#3385C3"/>
</g>
<defs>
<clipPath id="clip0_5436_9361">
<rect width="32" height="32" fill="white" transform="translate(0.213379 8.41406) rotate(-15)"/>
</clipPath>
</defs>
</svg>
