<svg width="33" height="33" viewBox="0 0 33 33" fill="none" xmlns="http://www.w3.org/2000/svg">
<path d="M9.89473 7.30863C9.89438 8.01587 9.61309 8.69401 9.11274 9.19385C8.6124 9.6937 7.93398 9.97431 7.22673 9.97396C6.51949 9.97361 5.84135 9.69231 5.34151 9.19197C4.84166 8.69162 4.56105 8.0132 4.5614 7.30596C4.56176 6.59871 4.84305 5.92058 5.34339 5.42073C5.84374 4.92088 6.52216 4.64027 7.2294 4.64063C7.93665 4.64098 8.61478 4.92227 9.11463 5.42262C9.61448 5.92296 9.89509 6.60138 9.89473 7.30863ZM9.97473 11.9486H4.6414V28.642H9.97473V11.9486ZM18.4014 11.9486H13.0947V28.642H18.3481V19.882C18.3481 15.002 24.7081 14.5486 24.7081 19.882V28.642H29.9747V18.0686C29.9747 9.84196 20.5614 10.1486 18.3481 14.1886L18.4014 11.9486Z" fill="#3385C3"/>
</svg>
