<svg width="26" height="26" viewBox="0 0 26 26" fill="none" xmlns="http://www.w3.org/2000/svg">
<path fill-rule="evenodd" clip-rule="evenodd" d="M7.02717 2.52895C8.05638 2.44677 9.03343 2.04196 9.81917 1.37215C10.7066 0.616293 11.8343 0.201172 13 0.201172C14.1657 0.201172 15.2933 0.616293 16.1808 1.37215C16.9665 2.04196 17.9436 2.44677 18.9728 2.52895C20.1351 2.62184 21.2263 3.12569 22.0507 3.95017C22.8752 4.77466 23.3791 5.86586 23.472 7.02815C23.5536 8.05695 23.9584 9.03455 24.6288 9.82015C25.3846 10.7076 25.7997 11.8352 25.7997 13.0009C25.7997 14.1667 25.3846 15.2943 24.6288 16.1817C23.959 16.9675 23.5541 17.9445 23.472 18.9737C23.3791 20.136 22.8752 21.2272 22.0507 22.0517C21.2263 22.8762 20.1351 23.3801 18.9728 23.4729C17.9436 23.5551 16.9665 23.9599 16.1808 24.6297C15.2933 25.3856 14.1657 25.8007 13 25.8007C11.8343 25.8007 10.7066 25.3856 9.81917 24.6297C9.03343 23.9599 8.05638 23.5551 7.02717 23.4729C5.86488 23.3801 4.77368 22.8762 3.9492 22.0517C3.12471 21.2272 2.62086 20.136 2.52797 18.9737C2.4458 17.9445 2.04098 16.9675 1.37117 16.1817C0.615317 15.2943 0.200195 14.1667 0.200195 13.0009C0.200195 11.8352 0.615317 10.7076 1.37117 9.82015C2.04098 9.03441 2.4458 8.05736 2.52797 7.02815C2.62086 5.86586 3.12471 4.77466 3.9492 3.95017C4.77368 3.12569 5.86488 2.62184 7.02717 2.52895ZM18.9312 10.9321C19.2226 10.6304 19.3839 10.2262 19.3802 9.80671C19.3766 9.38719 19.2083 8.98589 18.9117 8.68924C18.615 8.39258 18.2137 8.22431 17.7942 8.22067C17.3747 8.21702 16.9705 8.37829 16.6688 8.66975L11.4 13.9385L9.33117 11.8697C9.02941 11.5783 8.62524 11.417 8.20573 11.4207C7.78621 11.4243 7.38491 11.5926 7.08826 11.8892C6.79161 12.1859 6.62334 12.5872 6.61969 13.0067C6.61605 13.4262 6.77732 13.8304 7.06877 14.1321L10.2688 17.3321C10.5688 17.6321 10.9757 17.8006 11.4 17.8006C11.8242 17.8006 12.2311 17.6321 12.5312 17.3321L18.9312 10.9321Z" fill="#0066B4"/>
</svg>
