<svg width="132" height="79" viewBox="0 0 132 79" fill="none" xmlns="http://www.w3.org/2000/svg">
<g clip-path="url(#clip0_5485_9454)">
<path d="M51.2497 70.7823C50.5394 71.0317 49.7769 71.0941 49.0354 70.9637C48.294 70.8332 47.5986 70.5143 47.0165 70.0375C45.5337 68.7945 45.0689 66.7467 44.6906 64.8506L43.5718 59.2422L45.9141 60.8531C47.5986 62.0115 49.321 63.2071 50.4873 64.885C51.6536 66.563 52.1627 68.8535 51.2256 70.6691" fill="#E6E6E6"/>
<path d="M51.0495 77.5722C51.2865 75.8474 51.5303 74.1005 51.364 72.3572C51.2163 70.8091 50.7434 69.2969 49.7807 68.0571C49.2696 67.4002 48.6478 66.8374 47.9431 66.3939C47.7593 66.2781 47.5902 66.569 47.7732 66.6843C48.9925 67.454 49.9356 68.5905 50.4665 69.93C51.0528 71.4196 51.147 73.0434 51.0459 74.6258C50.9848 75.5827 50.8553 76.5333 50.7248 77.4828C50.7145 77.5257 50.7209 77.5709 50.7428 77.6093C50.7646 77.6477 50.8002 77.6764 50.8424 77.6896C50.8854 77.7012 50.9313 77.6953 50.9701 77.6734C51.0088 77.6514 51.0374 77.615 51.0495 77.5722Z" fill="#F2F2F2"/>
<path d="M48.766 74.5209C48.4614 74.9833 48.0427 75.3596 47.5502 75.6134C47.0577 75.8673 46.5081 75.9902 45.9543 75.9703C44.5309 75.9029 43.3443 74.9106 42.2761 73.9686L39.1166 71.1824L41.2076 71.0825C42.7114 71.0106 44.254 70.9436 45.6863 71.4067C47.1185 71.8699 48.4395 72.9846 48.7014 74.4653" fill="#E6E6E6"/>
<path d="M51.7195 78.5637C50.5784 76.5471 49.2548 74.3059 46.8899 73.5896C46.2323 73.3911 45.5428 73.32 44.8585 73.3801C44.6428 73.3987 44.6967 73.7307 44.912 73.7122C46.059 73.617 47.2039 73.9196 48.1537 74.5688C49.0678 75.1902 49.7795 76.0541 50.3819 76.9703C50.7509 77.5315 51.0814 78.1165 51.4119 78.7007C51.5176 78.8874 51.8263 78.7526 51.7195 78.5637Z" fill="#F2F2F2"/>
<path d="M82.3036 38.1656L57.4263 58.7591C57.1132 59.0176 56.7103 59.1415 56.3059 59.1037C55.9015 59.0659 55.5287 58.8694 55.2691 58.5574L44.7822 45.9196C44.5233 45.607 44.3992 45.2045 44.4371 44.8006C44.4749 44.3967 44.6717 44.0243 44.9841 43.7651L69.8615 23.1716C70.1745 22.9131 70.5774 22.7892 70.9818 22.827C71.3862 22.8648 71.7591 23.0613 72.0186 23.3733L82.5056 36.0111C82.7644 36.3237 82.8885 36.7262 82.8507 37.1301C82.8128 37.534 82.6161 37.9064 82.3036 38.1656Z" fill="#CCCCCC"/>
<path d="M81.3067 37.5473L57.0012 57.6673C56.84 57.8005 56.6324 57.8644 56.4241 57.8449C56.2158 57.8254 56.0237 57.7242 55.89 57.5634L45.877 45.4969C45.7436 45.3358 45.6797 45.1285 45.6992 44.9204C45.7187 44.7123 45.8201 44.5205 45.981 44.387L70.2865 24.2669C70.4477 24.1338 70.6553 24.0699 70.8636 24.0894C71.072 24.1089 71.264 24.2101 71.3977 24.3708L81.4107 36.4374C81.5441 36.5985 81.608 36.8058 81.5885 37.0138C81.569 37.2219 81.4677 37.4138 81.3067 37.5473Z" fill="white"/>
<path d="M82.4272 41.7565L77.4281 41.2891L81.006 38.4766L82.9335 40.7993C83.0086 40.8879 83.0552 40.9972 83.0672 41.1127C83.0791 41.2283 83.0559 41.3447 83.0005 41.4468C82.9641 41.5162 82.9144 41.5777 82.8542 41.6278C82.7951 41.6764 82.7269 41.7128 82.6536 41.7349C82.5803 41.757 82.5033 41.7643 82.4272 41.7565Z" fill="#CCCCCC"/>
<path d="M72.3882 32.8131L60.0925 42.9914C60.0174 43.0536 59.9308 43.1004 59.8376 43.1291C59.7444 43.1579 59.6464 43.168 59.5493 43.1589C59.4522 43.1498 59.3578 43.1217 59.2716 43.0762C59.1853 43.0307 59.1089 42.9687 59.0466 42.8937C58.9844 42.8186 58.9375 42.7321 58.9088 42.639C58.88 42.5459 58.8699 42.4481 58.879 42.3511C58.8881 42.2541 58.9162 42.1598 58.9618 42.0737C59.0073 41.9876 59.0694 41.9112 59.1445 41.849L71.4403 31.6707C71.5154 31.6085 71.602 31.5617 71.6952 31.533C71.7884 31.5043 71.8864 31.4941 71.9835 31.5032C72.0806 31.5123 72.175 31.5404 72.2612 31.5859C72.3475 31.6314 72.4239 31.6935 72.4861 31.7685C72.5484 31.8435 72.5952 31.93 72.624 32.0231C72.6528 32.1162 72.6629 32.214 72.6538 32.311C72.6447 32.408 72.6166 32.5023 72.571 32.5884C72.5254 32.6746 72.4633 32.7509 72.3882 32.8131Z" fill="#CCCCCC"/>
<path d="M66.3705 33.6998L58.0781 40.5643C57.9264 40.6898 57.731 40.7501 57.5349 40.7317C57.3387 40.7134 57.1579 40.618 57.0322 40.4665C56.9065 40.315 56.8462 40.1198 56.8645 39.9239C56.8829 39.728 56.9784 39.5474 57.1301 39.4219L65.4226 32.5574C65.5742 32.4318 65.7696 32.3716 65.9658 32.39C66.1619 32.4083 66.3427 32.5037 66.4684 32.6552C66.5941 32.8067 66.6545 33.0018 66.6361 33.1977C66.6177 33.3937 66.5222 33.5742 66.3705 33.6998Z" fill="#CCCCCC"/>
<path d="M53.5214 47.7383C54.8034 47.7383 55.8426 46.7003 55.8426 45.4199C55.8426 44.1395 54.8034 43.1016 53.5214 43.1016C52.2395 43.1016 51.2002 44.1395 51.2002 45.4199C51.2002 46.7003 52.2395 47.7383 53.5214 47.7383Z" fill="#D12200"/>
<path d="M71.9855 40.7728C72.3958 40.7728 72.7283 40.4407 72.7283 40.0309C72.7283 39.6212 72.3958 39.2891 71.9855 39.2891C71.5753 39.2891 71.2428 39.6212 71.2428 40.0309C71.2428 40.4407 71.5753 40.7728 71.9855 40.7728Z" fill="#E6E6E6"/>
<path d="M73.9872 39.1166C74.3974 39.1166 74.73 38.7844 74.73 38.3747C74.73 37.965 74.3974 37.6328 73.9872 37.6328C73.5769 37.6328 73.2444 37.965 73.2444 38.3747C73.2444 38.7844 73.5769 39.1166 73.9872 39.1166Z" fill="#E6E6E6"/>
<path d="M75.9888 37.4603C76.399 37.4603 76.7316 37.1282 76.7316 36.7184C76.7316 36.3087 76.399 35.9766 75.9888 35.9766C75.5786 35.9766 75.246 36.3087 75.246 36.7184C75.246 37.1282 75.5786 37.4603 75.9888 37.4603Z" fill="#E6E6E6"/>
<path d="M64.1498 77.2727L65.8551 77.2726L66.6663 70.7031L64.1495 70.7033L64.1498 77.2727Z" fill="#FFB8B8"/>
<path d="M63.7148 76.715L67.0731 76.7148H67.0732C67.3543 76.7148 67.6326 76.7701 67.8922 76.8775C68.1519 76.985 68.3878 77.1424 68.5866 77.3409C68.7853 77.5394 68.9429 77.775 69.0505 78.0344C69.158 78.2937 69.2134 78.5717 69.2134 78.8524V78.9218L63.715 78.922L63.7148 76.715Z" fill="#2F2E41"/>
<path d="M58.0296 77.2727L59.7349 77.2726L60.5461 70.7031L58.0294 70.7033L58.0296 77.2727Z" fill="#FFB8B8"/>
<path d="M57.5947 76.715L60.953 76.7148H60.9531C61.2342 76.7148 61.5125 76.7701 61.7721 76.8775C62.0318 76.985 62.2677 77.1424 62.4664 77.3409C62.6652 77.5394 62.8228 77.775 62.9304 78.0344C63.0379 78.2937 63.0933 78.5717 63.0933 78.8524V78.9218L57.5948 78.922L57.5947 76.715Z" fill="#2F2E41"/>
<path d="M59.7409 75.2632H59.7406L58.2905 75.2628C58.1282 75.2634 57.9722 75.2007 57.8554 75.0882C57.7387 74.9757 57.6705 74.8221 57.6653 74.6602L57.6196 73.393C57.253 63.2598 56.8739 52.7815 59.2216 48.0719L59.24 48.0349L67.0126 47.7539L68.573 62.0508C68.6396 62.6606 68.6153 63.277 68.5007 63.8796L66.4379 74.7364C66.41 74.8836 66.3301 75.0159 66.2127 75.1092C66.0953 75.2024 65.9483 75.2505 65.7984 75.2446L64.1696 75.1918C64.0843 75.1885 64.0006 75.1677 63.9236 75.1308C63.8466 75.094 63.778 75.0418 63.722 74.9775C63.6659 74.9132 63.6237 74.8381 63.5977 74.7568C63.5718 74.6756 63.5628 74.5899 63.5712 74.5051L64.8508 64.4637C64.8944 64.0303 64.855 63.5926 64.7347 63.1739L63.1434 57.6177C63.1302 57.5718 63.1016 57.5317 63.0624 57.5043C63.0233 57.4769 62.9758 57.4638 62.9281 57.4671C62.8804 57.4705 62.8352 57.4901 62.8003 57.5227C62.7653 57.5554 62.7426 57.599 62.7361 57.6463L60.3608 74.7241C60.3395 74.8733 60.2652 75.0099 60.1513 75.1089C60.0375 75.2079 59.8918 75.2626 59.7409 75.2632Z" fill="#2F2E41"/>
<path d="M60.6704 33.4571C62.5572 33.4571 64.0867 31.9294 64.0867 30.045C64.0867 28.1605 62.5572 26.6328 60.6704 26.6328C58.7836 26.6328 57.2541 28.1605 57.2541 30.045C57.2541 31.9294 58.7836 33.4571 60.6704 33.4571Z" fill="#FFB8B8"/>
<path d="M66.6482 48.8065H59.5791C59.4892 48.8065 59.4004 48.7872 59.3187 48.7499C59.237 48.7125 59.1643 48.6581 59.1056 48.5902C59.0468 48.5223 59.0033 48.4426 58.9782 48.3565C58.953 48.2703 58.9467 48.1798 58.9597 48.091L59.3089 45.702L57.2581 40.0681C57.0464 39.4865 56.9677 38.8649 57.0279 38.2489C57.088 37.633 57.2855 37.0383 57.6057 36.5085C57.926 35.9787 58.3609 35.5273 58.8786 35.1872C59.3963 34.8472 59.9837 34.6273 60.5976 34.5435C61.4723 34.4217 62.3631 34.5827 63.1395 35.0031C63.9159 35.4234 64.5372 36.081 64.9124 36.8796L65.3628 37.8369L67.2637 48.0674C67.2804 48.1576 67.2771 48.2504 67.2539 48.3392C67.2307 48.4279 67.1882 48.5105 67.1295 48.5811C67.0708 48.6516 66.9972 48.7084 66.914 48.7474C66.8308 48.7863 66.7401 48.8065 66.6482 48.8065Z" fill="#D12200"/>
<path d="M51.7253 54.7992C51.9381 54.7498 52.1375 54.6545 52.3094 54.5198C52.4813 54.3852 52.6215 54.2146 52.7203 54.0199C52.819 53.8253 52.8738 53.6114 52.8808 53.3933C52.8878 53.1753 52.8469 52.9583 52.7608 52.7578L58.2693 40.3279L55.1182 39.5352L50.6944 52.0026C50.3667 52.1693 50.1115 52.4502 49.9773 52.7922C49.8431 53.1342 49.8391 53.5135 49.9662 53.8582C50.0933 54.203 50.3426 54.4891 50.6668 54.6626C50.991 54.836 51.3676 54.8846 51.7253 54.7992Z" fill="#FFB8B8"/>
<path d="M57.5236 42.5512L54.4589 41.1184C54.3717 41.0776 54.2943 41.0186 54.232 40.9453C54.1697 40.8719 54.124 40.7861 54.0979 40.6935C54.0719 40.6009 54.0661 40.5038 54.081 40.4088C54.0959 40.3138 54.1311 40.2231 54.1843 40.1429L56.0468 37.3335C56.2583 36.8894 56.6375 36.5471 57.1013 36.3817C57.565 36.2163 58.0755 36.2412 58.5208 36.451C58.9662 36.6608 59.3101 37.0384 59.4773 37.501C59.6444 37.9637 59.6212 38.4736 59.4126 38.9191L58.4495 42.137C58.4219 42.2291 58.3747 42.3142 58.3112 42.3865C58.2477 42.4588 58.1694 42.5166 58.0815 42.5559C57.9936 42.5952 57.8983 42.6151 57.802 42.6143C57.7058 42.6135 57.6108 42.592 57.5236 42.5512Z" fill="#D12200"/>
<path d="M74.7038 22.8145C74.7703 23.0224 74.7904 23.2422 74.7627 23.4586C74.7349 23.6751 74.66 23.8828 74.5432 24.0671C74.4264 24.2515 74.2705 24.408 74.0865 24.5257C73.9026 24.6434 73.6951 24.7194 73.4785 24.7483L65.6102 35.8393L63.3148 33.542L71.7709 23.3623C71.7464 22.9957 71.8573 22.633 72.0827 22.3427C72.3081 22.0524 72.6323 21.8548 72.9938 21.7873C73.3553 21.7198 73.729 21.7871 74.0442 21.9764C74.3594 22.1657 74.5941 22.4639 74.7038 22.8145Z" fill="#FFB8B8"/>
<path d="M67.4297 34.5376C67.4409 34.6331 67.4314 34.7299 67.4018 34.8214C67.3721 34.9129 67.3231 34.9969 67.258 35.0677L64.9839 37.5419C64.7077 37.9493 64.281 38.2307 63.7974 38.3244C63.3138 38.4181 62.8128 38.3164 62.4041 38.0417C61.9954 37.767 61.7125 37.3416 61.6174 36.8588C61.5223 36.3761 61.6227 35.8753 61.8967 35.4664L63.3589 32.4299C63.4006 32.3432 63.4605 32.2666 63.5346 32.2051C63.6087 32.1437 63.6951 32.0989 63.7881 32.0739C63.8811 32.0488 63.9783 32.0441 64.0733 32.06C64.1682 32.0758 64.2587 32.112 64.3384 32.1659L67.14 34.0613C67.2198 34.1152 67.2869 34.1857 67.3369 34.2679C67.3869 34.3501 67.4186 34.4421 67.4297 34.5376Z" fill="#D12200"/>
<path d="M65.1592 28.6187C65.157 28.3099 65.1141 28.0027 65.0314 27.7051C64.481 25.6737 62.4491 24.4544 60.41 24.7604C60.0135 24.6468 59.6029 24.5894 59.1904 24.5898C58.1409 24.5899 57.126 24.9647 56.329 25.6466C55.5319 26.3285 55.0053 27.2727 54.8442 28.3084L53.1971 38.8991H62.0991L63.5365 29.6571C63.5899 29.3136 63.6024 28.9651 63.5739 28.6187H65.1592Z" fill="#2F2E41"/>
<path d="M76.2234 79.0005H46.8746C46.8377 79.0005 46.8023 78.9859 46.7762 78.9598C46.7502 78.9338 46.7355 78.8984 46.7355 78.8616C46.7355 78.8247 46.7502 78.7894 46.7762 78.7633C46.8023 78.7373 46.8377 78.7227 46.8746 78.7227H76.2234C76.2603 78.7227 76.2957 78.7373 76.3217 78.7633C76.3478 78.7894 76.3625 78.8247 76.3625 78.8616C76.3625 78.8984 76.3478 78.9338 76.3217 78.9598C76.2957 78.9859 76.2603 79.0005 76.2234 79.0005Z" fill="#CCCCCC"/>
<path d="M105.791 10.7916C105.994 10.772 106.199 10.7973 106.392 10.8655C106.585 10.9338 106.76 11.0435 106.906 11.1868C107.052 11.3301 107.164 11.5036 107.235 11.695C107.307 11.8864 107.335 12.0911 107.319 12.2946L111.868 14.2945L109.698 15.6936L105.711 13.58C105.37 13.5297 105.06 13.3564 104.839 13.0929C104.617 12.8294 104.501 12.494 104.511 12.1503C104.52 11.8066 104.656 11.4784 104.892 11.228C105.128 10.9776 105.448 10.8223 105.791 10.7916Z" fill="#A0616A"/>
<path d="M124.141 8.29693C126.028 8.29693 127.558 6.76927 127.558 4.88479C127.558 3.00032 126.028 1.47266 124.141 1.47266C122.255 1.47266 120.725 3.00032 120.725 4.88479C120.725 6.76927 122.255 8.29693 124.141 8.29693Z" fill="#A0616A"/>
<path d="M117.958 53.5384L116.253 53.5382L115.442 46.9688L117.959 46.9689L117.958 53.5384Z" fill="#A0616A"/>
<path d="M118.393 55.1877L112.895 55.1875V55.118C112.895 54.8373 112.95 54.5593 113.058 54.3C113.165 54.0407 113.323 53.805 113.522 53.6065C113.72 53.408 113.956 53.2506 114.216 53.1432C114.476 53.0357 114.754 52.9805 115.035 52.9805L118.393 52.9806L118.393 55.1877Z" fill="#2F2E41"/>
<path d="M125.052 53.5384L123.347 53.5382L122.536 46.9688L125.053 46.9689L125.052 53.5384Z" fill="#A0616A"/>
<path d="M125.487 55.1877L119.989 55.1875V55.118C119.989 54.8373 120.044 54.5593 120.152 54.3C120.259 54.0407 120.417 53.805 120.616 53.6065C120.814 53.408 121.05 53.2506 121.31 53.1432C121.569 53.0357 121.848 52.9805 122.129 52.9805L125.487 52.9806L125.487 55.1877Z" fill="#2F2E41"/>
<path d="M124.971 52.1368C124.946 52.1368 124.92 52.1352 124.895 52.1321L122.399 51.8252C122.253 51.8074 122.117 51.7386 122.017 51.631C121.917 51.5233 121.858 51.3837 121.85 51.2368L121.123 34.8765C121.12 34.8301 121.102 34.7858 121.072 34.7508C121.041 34.7157 121 34.6919 120.954 34.683C120.909 34.6742 120.861 34.6808 120.82 34.702C120.778 34.7231 120.745 34.7574 120.725 34.7996L118.857 41.0212L118.472 51.015C118.469 51.1012 118.448 51.1857 118.41 51.2633C118.372 51.341 118.319 51.41 118.253 51.466C118.188 51.5221 118.111 51.5639 118.029 51.589C117.946 51.6141 117.859 51.6218 117.773 51.6117L115.612 51.3575C115.457 51.3399 115.315 51.2651 115.213 51.148C115.11 51.0309 115.056 50.8799 115.059 50.7245L115.243 41.3174L116.707 26.5508L116.773 26.5532L125.678 26.8961L125.597 51.5137C125.597 51.6792 125.531 51.8376 125.413 51.9544C125.296 52.0712 125.137 52.1368 124.971 52.1368Z" fill="#2F2E41"/>
<path d="M125.34 28.244C125.335 28.244 125.329 28.244 125.324 28.2439L116.355 28.0092C116.267 28.0069 116.181 27.9861 116.102 27.9482C116.022 27.9103 115.952 27.8562 115.895 27.7893C115.838 27.7224 115.796 27.6442 115.771 27.5599C115.746 27.4756 115.74 27.3871 115.751 27.3L117.475 14.6313C117.582 13.7759 117.869 12.9527 118.317 12.2156C118.765 11.4785 119.363 10.844 120.073 10.3535C120.698 9.92418 121.407 9.63328 122.153 9.50037C122.899 9.36745 123.666 9.3956 124.4 9.58292C127.531 10.3752 129.408 13.7326 128.586 17.0671L125.948 27.7684C125.914 27.9038 125.836 28.0241 125.726 28.1102C125.616 28.1963 125.48 28.2434 125.34 28.244Z" fill="#3F3D56"/>
<path d="M113.574 18.1849C112.983 18.1856 112.405 18.014 111.91 17.6911L106.68 14.2638C106.603 14.2136 106.539 14.1473 106.491 14.0695C106.442 13.9917 106.412 13.9043 106.401 13.8135C106.391 13.7226 106.4 13.6306 106.429 13.5438C106.458 13.457 106.506 13.3776 106.569 13.3113L107.357 12.4804C107.443 12.3893 107.554 12.3262 107.676 12.2993C107.799 12.2724 107.926 12.2829 108.043 12.3294L113.885 14.653L119.297 10.7928C119.55 10.6124 119.838 10.4863 120.142 10.4226C120.446 10.359 120.761 10.3591 121.065 10.423C121.369 10.487 121.657 10.6133 121.91 10.794C122.163 10.9747 122.375 11.2058 122.534 11.4728C122.693 11.7398 122.795 12.0369 122.833 12.3451C122.871 12.6534 122.844 12.9662 122.755 13.2637C122.666 13.5612 122.515 13.8369 122.314 14.0735C122.112 14.31 121.864 14.5023 121.584 14.638L114.896 17.8829C114.484 18.0821 114.032 18.1854 113.574 18.1849Z" fill="#3F3D56"/>
<path d="M125.325 8.14624C125.908 8.28369 126.611 8.38917 127.028 7.95941C127.102 7.87828 127.167 7.79036 127.225 7.69683L127.769 6.86642C128.186 6.23029 128.611 5.57757 128.787 4.83786C128.889 4.41282 128.905 3.97187 128.834 3.54064C128.764 3.10941 128.608 2.6965 128.376 2.32587C128.144 1.95525 127.841 1.63432 127.484 1.38171C127.127 1.1291 126.724 0.949856 126.297 0.854387C125.484 0.672559 124.688 0.359707 123.857 0.416775C123.025 0.473842 122.051 0.455107 121.353 0C121.397 0.202894 121.632 1.09937 121.632 1.09937C121.632 1.09937 120.583 2.06054 120.372 2.30021C120.648 2.17828 120.947 2.12103 121.248 2.13286C121.549 2.14469 121.844 2.22529 122.108 2.36845C122.373 2.51162 122.602 2.71355 122.777 2.95872C122.951 3.20389 123.067 3.48577 123.116 3.78271C123.175 4.1475 123.14 4.55207 123.357 4.85148C123.564 5.13625 123.934 5.23603 124.245 5.40045C124.693 5.65564 125.036 6.06248 125.21 6.54762C125.385 7.03275 125.38 7.56425 125.197 8.04624L125.325 8.14624Z" fill="#2F2E41"/>
<path d="M121.223 29.4662H92.9054C92.5494 29.4658 92.2082 29.3243 91.9564 29.0729C91.7047 28.8215 91.5631 28.4807 91.5627 28.1251V13.7395C91.5631 13.3839 91.7047 13.0431 91.9564 12.7917C92.2082 12.5403 92.5494 12.3988 92.9054 12.3984H121.223C121.579 12.3988 121.921 12.5403 122.172 12.7917C122.424 13.0431 122.566 13.3839 122.566 13.7395V28.1251C122.566 28.4807 122.424 28.8215 122.172 29.0729C121.921 29.3243 121.579 29.4658 121.223 29.4662Z" fill="#CCCCCC"/>
<path d="M120.898 28.4921H93.2309C93.0475 28.4919 92.8717 28.4191 92.742 28.2896C92.6124 28.16 92.5394 27.9844 92.5392 27.8013V14.0658C92.5394 13.8827 92.6124 13.7071 92.742 13.5776C92.8717 13.4481 93.0475 13.3752 93.2309 13.375H120.898C121.081 13.3752 121.257 13.4481 121.387 13.5776C121.516 13.7071 121.589 13.8827 121.59 14.0658V27.8013C121.589 27.9844 121.516 28.16 121.387 28.2896C121.257 28.4191 121.081 28.4919 120.898 28.4921Z" fill="white"/>
<path d="M119.296 31.9593L116.184 28.8516L120.173 28.9523V31.5963C120.174 31.6981 120.145 31.7978 120.088 31.8824C120.031 31.9671 119.95 32.0327 119.856 32.0706C119.793 32.0971 119.725 32.1109 119.656 32.111C119.589 32.1108 119.522 32.0973 119.461 32.0713C119.399 32.0452 119.343 32.0072 119.296 31.9593Z" fill="#CCCCCC"/>
<path d="M117.529 20.3199H103.533C103.36 20.3199 103.195 20.2514 103.073 20.1295C102.951 20.0076 102.882 19.8422 102.882 19.6697C102.882 19.4973 102.951 19.3319 103.073 19.21C103.195 19.088 103.36 19.0195 103.533 19.0195H117.529C117.702 19.0195 117.868 19.088 117.99 19.21C118.112 19.3319 118.18 19.4973 118.18 19.6697C118.18 19.8422 118.112 20.0076 117.99 20.1295C117.868 20.2514 117.702 20.3199 117.529 20.3199Z" fill="#CCCCCC"/>
<path d="M112.972 17.5543H103.533C103.447 17.5544 103.363 17.5377 103.284 17.5051C103.205 17.4725 103.133 17.4246 103.072 17.3642C103.012 17.3038 102.964 17.2321 102.931 17.1531C102.898 17.0742 102.881 16.9896 102.881 16.9041C102.881 16.8186 102.898 16.734 102.931 16.6551C102.964 16.5761 103.012 16.5044 103.072 16.444C103.133 16.3836 103.205 16.3357 103.284 16.3031C103.363 16.2705 103.447 16.2538 103.533 16.2539H112.972C113.145 16.2539 113.311 16.3224 113.433 16.4443C113.555 16.5663 113.623 16.7317 113.623 16.9041C113.623 17.0765 113.555 17.2419 113.433 17.3639C113.311 17.4858 113.145 17.5543 112.972 17.5543Z" fill="#CCCCCC"/>
<path d="M97.7392 20.3176C98.8627 20.3176 99.7735 19.4079 99.7735 18.2858C99.7735 17.1636 98.8627 16.2539 97.7392 16.2539C96.6157 16.2539 95.7049 17.1636 95.7049 18.2858C95.7049 19.4079 96.6157 20.3176 97.7392 20.3176Z" fill="#D12200"/>
<path d="M113.216 25.6129C113.576 25.6129 113.867 25.3218 113.867 24.9627C113.867 24.6036 113.576 24.3125 113.216 24.3125C112.857 24.3125 112.565 24.6036 112.565 24.9627C112.565 25.3218 112.857 25.6129 113.216 25.6129Z" fill="#E6E6E6"/>
<path d="M115.495 25.6129C115.854 25.6129 116.146 25.3218 116.146 24.9627C116.146 24.6036 115.854 24.3125 115.495 24.3125C115.135 24.3125 114.844 24.6036 114.844 24.9627C114.844 25.3218 115.135 25.6129 115.495 25.6129Z" fill="#E6E6E6"/>
<path d="M117.773 25.6129C118.133 25.6129 118.424 25.3218 118.424 24.9627C118.424 24.6036 118.133 24.3125 117.773 24.3125C117.413 24.3125 117.122 24.6036 117.122 24.9627C117.122 25.3218 117.413 25.6129 117.773 25.6129Z" fill="#E6E6E6"/>
<path d="M120.785 27.7561C120.807 27.5531 120.874 27.3575 120.981 27.1831C121.087 27.0086 121.23 26.8596 121.401 26.7465C121.571 26.6334 121.764 26.5589 121.966 26.5284C122.168 26.4979 122.375 26.512 122.571 26.5697L125.462 22.5312L126.389 24.9391L123.501 28.405C123.382 28.7276 123.149 28.9955 122.845 29.1578C122.542 29.3201 122.189 29.3656 121.855 29.2856C121.52 29.2056 121.226 29.0057 121.029 28.7238C120.832 28.4419 120.745 28.0976 120.785 27.7561Z" fill="#A0616A"/>
<path d="M124.096 27.5397C124.051 27.5435 124.005 27.5423 123.96 27.5362C123.869 27.5241 123.782 27.4922 123.705 27.4427C123.628 27.3933 123.563 27.3275 123.514 27.2501L122.903 26.282C122.836 26.1763 122.802 26.0528 122.806 25.9277C122.811 25.8026 122.853 25.6817 122.927 25.5807L126.627 20.5025L124.222 14.3098C124.007 13.7649 124.015 13.1575 124.244 12.6186C124.474 12.0796 124.906 11.6523 125.448 11.4286C125.754 11.3003 126.085 11.2414 126.416 11.2561C126.748 11.2708 127.072 11.3587 127.366 11.5136C127.659 11.6684 127.915 11.8863 128.114 12.1516C128.313 12.4169 128.451 12.723 128.518 13.0478L130.01 20.3238C130.114 20.8369 130.083 21.3681 129.921 21.8659C129.759 22.3638 129.471 22.8114 129.085 23.1654L124.466 27.3784C124.364 27.4715 124.234 27.5282 124.096 27.5397Z" fill="#3F3D56"/>
<path d="M131.861 55.52H102.512C102.475 55.52 102.44 55.5054 102.414 55.4793C102.388 55.4533 102.373 55.418 102.373 55.3811C102.373 55.3443 102.388 55.3089 102.414 55.2829C102.44 55.2568 102.475 55.2422 102.512 55.2422H131.861C131.898 55.2422 131.933 55.2568 131.959 55.2829C131.985 55.3089 132 55.3443 132 55.3811C132 55.418 131.985 55.4533 131.959 55.4793C131.933 55.5054 131.898 55.52 131.861 55.52Z" fill="#CCCCCC"/>
<path d="M35.6939 20.9466H7.37588C7.0199 20.9462 6.67862 20.8048 6.4269 20.5534C6.17519 20.302 6.0336 19.9611 6.0332 19.6056V5.21995C6.0336 4.8644 6.17519 4.52354 6.4269 4.27213C6.67862 4.02072 7.0199 3.87931 7.37588 3.87891H35.6939C36.0499 3.87931 36.3912 4.02072 36.6429 4.27213C36.8946 4.52354 37.0362 4.86441 37.0366 5.21995V19.6056C37.0362 19.9611 36.8946 20.302 36.6429 20.5534C36.3912 20.8048 36.0499 20.9462 35.6939 20.9466Z" fill="#CCCCCC"/>
<path d="M35.3684 19.9726H7.70138C7.518 19.9724 7.34219 19.8995 7.21252 19.77C7.08285 19.6405 7.00991 19.4649 7.0097 19.2817V5.5463C7.00991 5.36315 7.08285 5.18755 7.21252 5.05803C7.34219 4.92852 7.518 4.85567 7.70138 4.85547H35.3684C35.5518 4.85567 35.7276 4.92852 35.8573 5.05803C35.9869 5.18755 36.0599 5.36315 36.0601 5.5463V19.2817C36.0599 19.4649 35.9869 19.6405 35.8573 19.77C35.7276 19.8995 35.5518 19.9724 35.3684 19.9726Z" fill="white"/>
<path d="M33.7661 23.4398L30.6546 20.332L34.6438 20.4328V23.0767C34.6448 23.1785 34.6151 23.2783 34.5585 23.3629C34.5019 23.4476 34.421 23.5132 34.3264 23.5511C34.263 23.5776 34.1951 23.5913 34.1264 23.5915C34.0593 23.5913 33.9929 23.5778 33.931 23.5517C33.8692 23.5257 33.8132 23.4876 33.7661 23.4398Z" fill="#CCCCCC"/>
<path d="M31.9998 11.7965H18.0035C17.8309 11.7965 17.6653 11.728 17.5432 11.6061C17.4211 11.4841 17.3525 11.3187 17.3525 11.1463C17.3525 10.9738 17.4211 10.8085 17.5432 10.6865C17.6653 10.5646 17.8309 10.4961 18.0035 10.4961H31.9998C32.1725 10.4961 32.338 10.5646 32.4601 10.6865C32.5822 10.8085 32.6508 10.9738 32.6508 11.1463C32.6508 11.3187 32.5822 11.4841 32.4601 11.6061C32.338 11.728 32.1725 11.7965 31.9998 11.7965Z" fill="#CCCCCC"/>
<path d="M27.4429 9.03477H18.0035C17.8309 9.03477 17.6653 8.96627 17.5432 8.84433C17.4211 8.7224 17.3525 8.55702 17.3525 8.38457C17.3525 8.21213 17.4211 8.04675 17.5432 7.92481C17.6653 7.80288 17.8309 7.73438 18.0035 7.73438H27.4429C27.6155 7.73438 27.7811 7.80288 27.9032 7.92481C28.0253 8.04675 28.0939 8.21213 28.0939 8.38457C28.0939 8.55702 28.0253 8.7224 27.9032 8.84433C27.7811 8.96627 27.6155 9.03477 27.4429 9.03477Z" fill="#CCCCCC"/>
<path d="M12.2097 11.7981C13.3332 11.7981 14.244 10.8884 14.244 9.76625C14.244 8.64407 13.3332 7.73438 12.2097 7.73438C11.0861 7.73438 10.1753 8.64407 10.1753 9.76625C10.1753 10.8884 11.0861 11.7981 12.2097 11.7981Z" fill="#D12200"/>
<path d="M27.6865 17.0934C28.0461 17.0934 28.3375 16.8023 28.3375 16.4432C28.3375 16.0841 28.0461 15.793 27.6865 15.793C27.327 15.793 27.0356 16.0841 27.0356 16.4432C27.0356 16.8023 27.327 17.0934 27.6865 17.0934Z" fill="#E6E6E6"/>
<path d="M29.965 17.0934C30.3245 17.0934 30.616 16.8023 30.616 16.4432C30.616 16.0841 30.3245 15.793 29.965 15.793C29.6055 15.793 29.314 16.0841 29.314 16.4432C29.314 16.8023 29.6055 17.0934 29.965 17.0934Z" fill="#E6E6E6"/>
<path d="M32.2435 17.0934C32.603 17.0934 32.8944 16.8023 32.8944 16.4432C32.8944 16.0841 32.603 15.793 32.2435 15.793C31.8839 15.793 31.5925 16.0841 31.5925 16.4432C31.5925 16.8023 31.8839 17.0934 32.2435 17.0934Z" fill="#E6E6E6"/>
<path d="M34.5195 2.49628C34.3271 2.56546 34.1523 2.67593 34.0072 2.81991C33.8622 2.96389 33.7506 3.13787 33.6801 3.32961C33.6097 3.52135 33.5823 3.72618 33.5997 3.92967C33.6171 4.13316 33.679 4.33036 33.7809 4.50739L30.5233 8.25699L33.0839 8.5958L35.7848 4.98317C36.0712 4.79235 36.2775 4.50324 36.3648 4.17061C36.452 3.83799 36.414 3.48496 36.2581 3.17842C36.1021 2.87188 35.839 2.63313 35.5186 2.50741C35.1981 2.38169 34.8427 2.37773 34.5195 2.49628Z" fill="#FFB8B8"/>
<path d="M12.7685 3.99835C12.838 4.19043 12.8645 4.39539 12.8461 4.59879C12.8277 4.80219 12.7649 4.99909 12.662 5.17562C12.5592 5.35214 12.4189 5.504 12.2509 5.6205C12.083 5.737 11.8915 5.81529 11.6899 5.84988L10.8793 10.7479L8.9838 8.9954L10.0442 4.61286C10.0085 4.27087 10.0996 3.92766 10.3003 3.64828C10.501 3.3689 10.7973 3.17275 11.1331 3.09701C11.4689 3.02126 11.8209 3.07118 12.1223 3.2373C12.4237 3.40342 12.6537 3.67421 12.7685 3.99835Z" fill="#FFB8B8"/>
<path d="M17.8595 53.5384L19.5648 53.5382L20.376 46.9688L17.8592 46.9689L17.8595 53.5384Z" fill="#FFB8B8"/>
<path d="M17.4245 52.9806L20.7828 52.9805H20.7829C21.0639 52.9805 21.3422 53.0357 21.6019 53.1432C21.8616 53.2506 22.0975 53.408 22.2962 53.6065C22.495 53.805 22.6526 54.0407 22.7601 54.3C22.8677 54.5593 22.9231 54.8373 22.9231 55.118V55.1875L17.4246 55.1877L17.4245 52.9806Z" fill="#2F2E41"/>
<path d="M9.09659 53.5384L10.8019 53.5382L11.6131 46.9688L9.09631 46.9689L9.09659 53.5384Z" fill="#FFB8B8"/>
<path d="M8.66159 52.9806L12.0198 52.9805H12.02C12.301 52.9805 12.5793 53.0357 12.839 53.1432C13.0986 53.2506 13.3346 53.408 13.5333 53.6065C13.732 53.805 13.8897 54.0407 13.9972 54.3C14.1048 54.5593 14.1601 54.8373 14.1601 55.118V55.1875L8.66169 55.1877L8.66159 52.9806Z" fill="#2F2E41"/>
<path d="M17.5035 8.68365C19.3903 8.68365 20.9198 7.15598 20.9198 5.27151C20.9198 3.38704 19.3903 1.85938 17.5035 1.85938C15.6167 1.85938 14.0872 3.38704 14.0872 5.27151C14.0872 7.15598 15.6167 8.68365 17.5035 8.68365Z" fill="#FFB8B8"/>
<path d="M17.094 51.3523L16.8115 33.3745C16.8108 33.3237 16.7915 33.2749 16.7573 33.2373C16.7231 33.1997 16.6762 33.1759 16.6257 33.1704C16.5751 33.1648 16.5242 33.1779 16.4826 33.2073C16.4411 33.2366 16.4116 33.28 16.3999 33.3295L11.7693 50.9141C11.7345 51.0548 11.6523 51.1793 11.5366 51.2668C11.4209 51.3542 11.2786 51.3994 11.1336 51.3946L8.58953 51.2859C8.50304 51.2822 8.41826 51.2606 8.34055 51.2225C8.26285 51.1844 8.19389 51.1307 8.13805 51.0646C8.08221 50.9985 8.0407 50.9216 8.01613 50.8387C7.99156 50.7558 7.98447 50.6687 7.99532 50.5829L11.9245 27.9856L11.9326 27.9219L22.8768 28.439L22.9482 28.4423L20.6013 51.3899C20.589 51.547 20.518 51.6937 20.4024 51.8009C20.2867 51.9081 20.1349 51.968 19.9772 51.9686H17.7199C17.5556 51.968 17.3981 51.9031 17.2811 51.7879C17.1641 51.6727 17.097 51.5163 17.094 51.3523Z" fill="#2F2E41"/>
<path d="M25.738 29.9629L9.85654 28.6612C9.76068 28.6533 9.66793 28.6235 9.58547 28.5741C9.50302 28.5246 9.43308 28.4568 9.3811 28.376C9.32912 28.2952 9.29649 28.2035 9.28575 28.108C9.275 28.0126 9.28643 27.9159 9.31915 27.8256L11.8202 20.9194L11.9641 12.7224C11.9693 12.4248 12.0336 12.1313 12.1533 11.8587C12.273 11.5862 12.4457 11.3401 12.6613 11.1347C12.877 10.9294 13.1313 10.7688 13.4096 10.6624C13.6879 10.556 13.9845 10.5058 14.2823 10.5148L15.3385 9.55859H19.208L19.545 9.99979L22.2374 10.413C22.717 10.4886 23.1595 10.7163 23.4996 11.0623C23.8398 11.4084 24.0595 11.8545 24.1263 12.3348L26.4095 29.2565C26.4213 29.3448 26.4142 29.4346 26.3885 29.5199C26.3629 29.6052 26.3192 29.684 26.2606 29.7511C26.2019 29.8182 26.1296 29.872 26.0484 29.9089C25.9672 29.9458 25.8791 29.965 25.7899 29.9651C25.7727 29.9651 25.7553 29.9644 25.738 29.9629Z" fill="#3385C3"/>
<path d="M22.6437 11.2078L29.4153 9.2262L32.4799 5.19629C32.5642 5.0853 32.6833 5.00565 32.8182 4.97001C32.9531 4.93436 33.0961 4.94477 33.2243 4.99958L35.1378 5.81644C35.2193 5.85126 35.2926 5.90301 35.3526 5.96825C35.4126 6.03348 35.4581 6.11072 35.486 6.19484C35.5139 6.27896 35.5235 6.36804 35.5143 6.45617C35.5051 6.5443 35.4772 6.62946 35.4325 6.70602L33.1423 10.6315C32.7693 11.2736 32.2017 11.7807 31.5213 12.0795L23.5566 15.596L22.6437 11.2078Z" fill="#2F2E41"/>
<path d="M9.65213 14.1733C9.24745 13.8821 8.92474 13.4917 8.71512 13.0397C8.5055 12.5877 8.41605 12.0893 8.4554 11.5927L8.75257 7.66012C8.76482 7.50304 8.83586 7.35634 8.95152 7.24921C9.06719 7.14209 9.21901 7.0824 9.37676 7.08203H9.38229L11.6261 7.10197C11.7181 7.10281 11.8087 7.12386 11.8915 7.16362C11.9744 7.20338 12.0475 7.26088 12.1056 7.33202C12.1637 7.40317 12.2054 7.48623 12.2277 7.57529C12.25 7.66435 12.2525 7.75723 12.2348 7.84734L11.8185 9.96893L14.7895 11.2228L12.2876 16.0842L9.65213 14.1733Z" fill="#2F2E41"/>
<path d="M19.4909 1.18177C19.4909 1.18177 15.9183 -0.739586 13.971 1.52803C12.0237 3.79565 14.7129 7.3417 14.7129 7.3417L18.5446 7.82438C18.5446 7.82438 18.6837 5.22281 19.5961 5.27331C20.5084 5.32382 23.3417 2.04102 19.4909 1.18177Z" fill="#2F2E41"/>
<path d="M29.4879 55.3833H0.139094C0.102204 55.3833 0.0668247 55.3687 0.0407395 55.3426C0.0146544 55.3166 0 55.2812 0 55.2444C0 55.2075 0.0146544 55.1722 0.0407395 55.1462C0.0668247 55.1201 0.102204 55.1055 0.139094 55.1055H29.4879C29.5248 55.1055 29.5602 55.1201 29.5862 55.1462C29.6123 55.1722 29.627 55.2075 29.627 55.2444C29.627 55.2812 29.6123 55.3166 29.5862 55.3426C29.5602 55.3687 29.5248 55.3833 29.4879 55.3833Z" fill="#CCCCCC"/>
</g>
<defs>
<clipPath id="clip0_5485_9454">
<rect width="132" height="79" fill="white"/>
</clipPath>
</defs>
</svg>
