<svg width="99" height="117" viewBox="0 0 99 117" fill="none" xmlns="http://www.w3.org/2000/svg">
<g clip-path="url(#clip0_5485_9426)">
<path d="M97.262 114.669C96.702 115.424 96.0079 116.069 95.2143 116.572C95.0455 116.679 94.8723 116.78 94.696 116.874H90.5479C90.5975 116.774 90.6458 116.673 90.6925 116.572C91.9787 113.857 92.382 110.807 91.8458 107.85C91.3096 104.894 89.8608 102.18 87.7031 100.09C90.2103 100.865 92.5277 102.375 94.0436 104.517C94.7801 105.56 95.3039 106.739 95.585 107.984C95.8355 105.493 95.4373 102.979 94.4293 100.687C96.4649 102.344 98.0501 104.612 98.6543 107.166C99.2584 109.721 98.82 112.557 97.262 114.669Z" fill="#F0F0F0"/>
<path d="M98.9425 117.001H60.1074V116.684H99L98.9425 117.001Z" fill="#3F3D56"/>
<path d="M46.5211 39.6866C46.5211 45.5114 44.487 50.4845 40.6161 54.1853C37.8693 56.8128 33.6383 60.4956 33.6383 64.3893V67.6108H20.7554V64.3893C20.7554 60.4549 16.5078 56.7646 13.7776 54.1853C9.99409 50.6141 7.87256 45.3034 7.87256 39.6866V39.5675C7.88918 34.4405 9.94063 29.5301 13.5757 25.9163C17.2108 22.3025 22.1318 20.2812 27.2564 20.297C32.3809 20.3128 37.2894 22.3644 40.9021 26.0005C44.5149 29.6367 46.5361 34.5596 46.5211 39.6866Z" fill="#D12200"/>
<path d="M33.6381 68.0639C33.5182 68.0639 33.4032 68.0163 33.3185 67.9314C33.2337 67.8466 33.1861 67.7316 33.1861 67.6117V64.3896C33.1861 60.6021 36.9197 57.0664 39.646 54.4847C39.8721 54.2703 40.0922 54.0626 40.3034 53.8598C44.0747 50.2528 46.0682 45.3522 46.0682 39.6876C46.0682 29.1008 37.779 20.8077 27.1971 20.8077H27.1438C22.1638 20.8133 17.3887 22.7913 13.8624 26.3093C10.3361 29.8273 8.34553 34.5991 8.32594 39.5813V39.6868C8.32594 45.2343 10.4262 50.3993 14.0886 53.858C14.274 54.0334 14.4668 54.2138 14.6646 54.3991C17.4261 56.9857 21.208 60.5281 21.208 64.3898V67.6117C21.208 67.7316 21.1604 67.8466 21.0756 67.9314C20.9909 68.0163 20.8759 68.0639 20.756 68.0639C20.6361 68.0639 20.5211 68.0163 20.4364 67.9314C20.3516 67.8466 20.304 67.7316 20.304 67.6117V64.3896C20.304 60.9202 16.6877 57.5328 14.0467 55.0584C13.8479 54.8724 13.655 54.6913 13.4679 54.515C9.62567 50.8862 7.42188 45.4817 7.42188 39.687V39.5785C7.45201 28.7179 16.2945 19.9026 27.1424 19.9026H27.1983C32.4156 19.8755 37.4299 21.9229 41.1382 25.5946C44.8466 29.2663 46.9451 34.2613 46.9723 39.481C46.9726 39.5498 46.9726 39.6187 46.9722 39.6876C46.9722 45.6051 44.8822 50.7319 40.9283 54.5136C40.716 54.7167 40.495 54.9261 40.2674 55.1415C37.6607 57.6103 34.0897 60.9913 34.0897 64.3896V67.6117C34.0897 67.7316 34.0421 67.8466 33.9573 67.9314C33.8725 68.0163 33.7575 68.0639 33.6377 68.0639H33.6381Z" fill="#3F3D56"/>
<path d="M31.4912 73.8668H22.9027C22.7029 73.8668 22.5112 73.7874 22.37 73.6461C22.2287 73.5047 22.1493 73.313 22.1493 73.1131C22.1493 72.9132 22.2287 72.7215 22.37 72.5801C22.5112 72.4388 22.7029 72.3594 22.9027 72.3594H31.4912C31.6911 72.3594 31.8827 72.4388 32.024 72.5801C32.1653 72.7215 32.2446 72.9132 32.2446 73.1131C32.2446 73.313 32.1653 73.5047 32.024 73.6461C31.8827 73.7874 31.6911 73.8668 31.4912 73.8668Z" fill="#D12200"/>
<path d="M28.1205 78.918H26.2721C25.6301 78.9184 25.0001 78.7438 24.4498 78.4129C24.3683 78.3653 24.3051 78.2917 24.2704 78.2038C24.2357 78.1159 24.2316 78.0189 24.2587 77.9284C24.2835 77.8354 24.3384 77.7534 24.4148 77.6949C24.4911 77.6365 24.5847 77.605 24.6809 77.6055H29.7118C29.8079 77.605 29.9015 77.6365 29.9779 77.6949C30.0543 77.7534 30.1092 77.8354 30.134 77.9284C30.161 78.0189 30.1569 78.1159 30.1223 78.2038C30.0876 78.2917 30.0244 78.3653 29.9428 78.4129C29.3925 78.7438 28.7625 78.9185 28.1205 78.918Z" fill="#3F3D56"/>
<path d="M31.4927 76.2457L22.8532 76.2447L22.8264 76.1873C22.8009 76.0817 22.7999 75.9717 22.8234 75.8657C22.8469 75.7597 22.8943 75.6604 22.962 75.5756C23.0307 75.4885 23.1182 75.4182 23.218 75.3699C23.3178 75.3216 23.4272 75.2966 23.538 75.2969H30.8546C30.9654 75.2966 31.0749 75.3216 31.1747 75.3699C31.2745 75.4182 31.362 75.4885 31.4306 75.5756C31.4978 75.6593 31.545 75.7572 31.5688 75.8619C31.5926 75.9665 31.5923 76.0752 31.5679 76.1797L31.5543 76.2379L31.4927 76.2457Z" fill="#3F3D56"/>
<path d="M7.21728 21.922C7.03516 21.9223 6.85918 21.8562 6.72216 21.7362L0.252249 16.0861C0.104036 15.954 0.0139171 15.7687 0.0014812 15.5705C-0.0109547 15.3723 0.0552982 15.1772 0.185836 15.0276C0.316373 14.878 0.500648 14.786 0.698618 14.7715C0.896589 14.7571 1.09226 14.8214 1.2431 14.9505L7.713 20.6006C7.82857 20.7015 7.91059 20.8353 7.94811 20.9841C7.98563 21.1329 7.97685 21.2896 7.92296 21.4333C7.86907 21.577 7.77262 21.7008 7.64652 21.7881C7.52042 21.8755 7.37067 21.9223 7.21728 21.9222V21.922Z" fill="#E4E4E4"/>
<path d="M46.1036 21.9187C45.9502 21.9188 45.8005 21.872 45.6744 21.7847C45.5483 21.6973 45.4518 21.5735 45.3979 21.4298C45.3441 21.2862 45.3353 21.1294 45.3728 20.9807C45.4103 20.8319 45.4923 20.6981 45.6079 20.5972L52.0776 14.9466C52.2285 14.8175 52.4241 14.7532 52.6221 14.7676C52.8201 14.7821 53.0044 14.8741 53.1349 15.0237C53.2654 15.1733 53.3317 15.3684 53.3193 15.5666C53.3068 15.7648 53.2167 15.9501 53.0685 16.0822L46.5986 21.7323C46.4617 21.8525 46.2858 21.9187 46.1036 21.9187Z" fill="#E4E4E4"/>
<path d="M33.6381 71.1911H20.7553C20.5555 71.1911 20.3638 71.1117 20.2226 70.9703C20.0813 70.8289 20.0019 70.6372 20.0019 70.4373C20.0019 70.2374 20.0813 70.0457 20.2226 69.9044C20.3638 69.763 20.5555 69.6836 20.7553 69.6836H33.6381C33.8379 69.6836 34.0296 69.763 34.1709 69.9044C34.3121 70.0457 34.3915 70.2374 34.3915 70.4373C34.3915 70.6372 34.3121 70.8289 34.1709 70.9703C34.0296 71.1117 33.8379 71.1911 33.6381 71.1911Z" fill="#D12200"/>
<path d="M26.8804 51.5027L24.2014 67.613H22.672L25.3932 51.2555C25.426 51.0582 25.5358 50.882 25.6984 50.7657C25.861 50.6494 26.0632 50.6024 26.2604 50.6352C26.4576 50.668 26.6337 50.7778 26.75 50.9405C26.8662 51.1032 26.9132 51.3054 26.8804 51.5027Z" fill="#E6E6E6"/>
<path d="M32.029 67.613H30.4997L27.8206 51.5027C27.7879 51.3054 27.8348 51.1032 27.951 50.9405C28.0673 50.7778 28.2434 50.668 28.4407 50.6352C28.6379 50.6024 28.84 50.6494 29.0026 50.7657C29.1653 50.882 29.275 51.0582 29.3078 51.2555L32.029 67.613Z" fill="#E6E6E6"/>
<path d="M22.3005 50.9608C22.3005 50.7609 22.3799 50.5691 22.5212 50.4278C22.6625 50.2864 22.8541 50.207 23.0539 50.207H31.3401C31.5399 50.207 31.7315 50.2864 31.8728 50.4278C32.0141 50.5691 32.0935 50.7609 32.0935 50.9608C32.0935 51.1607 32.0141 51.3524 31.8728 51.4937C31.7315 51.6351 31.5399 51.7145 31.3401 51.7145H23.0539C22.8541 51.7145 22.6625 51.6351 22.5212 51.4937C22.3799 51.3524 22.3005 51.1607 22.3005 50.9608Z" fill="#E6E6E6"/>
<path d="M27.197 14.3963C26.9972 14.3963 26.8056 14.3169 26.6643 14.1755C26.523 14.0341 26.4436 13.8424 26.4436 13.6425V0.753731C26.4436 0.553829 26.523 0.362115 26.6643 0.220763C26.8056 0.0794107 26.9972 0 27.197 0C27.3968 0 27.5884 0.0794107 27.7297 0.220763C27.871 0.362115 27.9504 0.553829 27.9504 0.753731V13.6425C27.9504 13.8424 27.871 14.0341 27.7297 14.1755C27.5884 14.3169 27.3968 14.3963 27.197 14.3963Z" fill="#E4E4E4"/>
<path d="M88.7816 114.89H86.9346L86.0558 107.762H88.7819L88.7816 114.89Z" fill="#FEB8B8"/>
<path d="M89.2527 116.684H83.2963V116.608C83.2964 115.993 83.5406 115.403 83.9753 114.968C84.4101 114.534 84.9997 114.289 85.6145 114.289H89.2527L89.2527 116.684Z" fill="#2F2E41"/>
<path d="M74.748 114.829L72.9634 114.352L73.9548 107.238L76.5887 107.943L74.748 114.829Z" fill="#FEB8B8"/>
<path d="M74.7406 116.684L68.9864 115.145L69.0058 115.072C69.1647 114.478 69.553 113.971 70.0853 113.663C70.6176 113.355 71.2504 113.271 71.8444 113.43L75.359 114.37L74.7406 116.684Z" fill="#2F2E41"/>
<path d="M89.8443 74.9414L91.3916 76.74L89.3906 113.287H85.1161L82.9614 85.1653L76.279 114.041L71.8353 112.951L75.8758 76.2745L89.8443 74.9414Z" fill="#2F2E41"/>
<path d="M76.9088 51.3473L81.1648 49.2109L87.7098 49.3261L93.3421 52.2094L90.1375 68.2214L91.5217 76.5697C86.1715 77.9348 80.5702 77.9809 75.1982 76.7042L75.1554 76.6939C75.1554 76.6939 78.3368 65.4006 76.9825 61.9541L76.9088 51.3473Z" fill="#3385C3"/>
<path d="M89.2215 42.8129C89.2168 41.5353 88.7056 40.3118 87.8001 39.411C86.8946 38.5101 85.6689 38.0055 84.3919 38.0078C83.1149 38.0102 81.891 38.5194 80.9889 39.4236C80.0867 40.3278 79.5801 41.5532 79.5801 42.8308C79.5801 44.1084 80.0867 45.3338 80.9889 46.238C81.891 47.1422 83.1149 47.6514 84.3919 47.6538C85.6689 47.6561 86.8946 47.1515 87.8001 46.2506C88.7056 45.3497 89.2168 44.1262 89.2215 42.8486V42.8129Z" fill="#FEB8B8"/>
<path d="M76.3215 63.0184C76.4131 63.2538 76.5552 63.4662 76.7377 63.6408C76.9202 63.8153 77.1388 63.9476 77.3779 64.0285C77.6171 64.1094 77.8711 64.1368 78.122 64.1088C78.373 64.0809 78.6147 63.9982 78.8303 63.8667L87.472 68.437L87.7518 66.3309L79.3546 61.377C79.1097 61.0294 78.7459 60.7837 78.332 60.6866C77.9182 60.5894 77.4831 60.6475 77.1092 60.8498C76.7354 61.0522 76.4487 61.3847 76.3034 61.7844C76.1582 62.184 76.1646 62.6231 76.3213 63.0184H76.3215Z" fill="#FEB8B8"/>
<path d="M87.8376 63.3834C87.6967 63.5931 87.5116 63.7693 87.2954 63.8996C87.0791 64.0299 86.8369 64.1113 86.5858 64.1378C86.3347 64.1644 86.0809 64.1355 85.8421 64.0533C85.6034 63.9711 85.3856 63.8376 85.204 63.662L75.7717 66.23L75.8538 63.556L85.2366 61.118C85.5516 60.8324 85.9603 60.6723 86.3854 60.6681C86.8105 60.6638 87.2224 60.8157 87.543 61.095C87.8636 61.3743 88.0706 61.7616 88.1249 62.1834C88.1792 62.6052 88.0769 63.0323 87.8374 63.3837L87.8376 63.3834Z" fill="#FEB8B8"/>
<path d="M91.5029 52.3223L93.3419 52.207C93.3419 52.207 95.4951 55.0494 94.3008 58.1338C94.3008 58.1338 94.5077 69.2136 89.7389 68.7584C84.9702 68.3031 83.4633 68.3033 83.4633 68.3033L84.8947 64.3085L88.097 63.3193C88.097 63.3193 87.1101 58.9636 88.9783 57.1514L91.5029 52.3223Z" fill="#3385C3"/>
<path d="M78.2235 52.2277L77.9636 50.8946C77.9636 50.8946 74.1304 50.8042 73.3725 56.6156C73.3725 56.6156 69.9255 65.3124 73.3041 66.4323C76.6827 67.5522 80.3993 66.4323 80.3993 66.4323L80.1195 62.5967L76.4023 61.838C76.4023 61.838 78.3227 59.3524 77.277 57.1963L78.2235 52.2277Z" fill="#3385C3"/>
<path d="M86.0699 45.1808C85.7154 45.0417 85.3227 45.0489 84.948 44.9802C83.608 44.7332 82.5745 43.3662 82.7018 42.009C82.7338 41.8332 82.7367 41.6533 82.7105 41.4765C82.6176 41.0892 82.1874 40.8813 81.7921 40.835C81.3969 40.7886 80.9885 40.8479 80.604 40.745C80.0104 40.5859 79.5669 40.0442 79.4166 39.4481C79.2885 38.8419 79.3554 38.2106 79.6075 37.6447L79.792 38.0294C79.9838 37.8257 80.1146 37.5723 80.1696 37.2979C80.3307 37.3066 80.4869 37.3565 80.6232 37.4429C80.7595 37.5292 80.8713 37.6492 80.948 37.7912C81.1863 37.8976 81.1572 37.3531 81.3946 37.2453C81.5016 37.2195 81.6143 37.2342 81.7111 37.2865C82.2343 37.4622 82.7893 37.1987 83.3078 37.0098C84.206 36.6838 85.1682 36.5738 86.1167 36.6887C86.7469 36.7657 87.3832 36.952 87.8736 37.3549C88.2612 37.7062 88.5763 38.1299 88.8012 38.6022C89.4065 39.7341 89.8624 40.9827 89.85 42.2668C89.8377 43.3178 89.5145 44.3417 88.9212 45.2092C88.612 45.6593 87.6133 47.2206 86.9496 47.0487C86.1158 46.8333 87.0682 45.5725 86.0699 45.1808Z" fill="#2F2E41"/>
</g>
<defs>
<clipPath id="clip0_5485_9426">
<rect width="99" height="117" fill="white"/>
</clipPath>
</defs>
</svg>
