<svg width="126" height="87" viewBox="0 0 126 87" fill="none" xmlns="http://www.w3.org/2000/svg">
<g clip-path="url(#clip0_5485_9755)">
<path opacity="0.1" d="M32.0528 34.8594H18.7077C18.235 34.8594 17.8519 35.2402 17.8519 35.7099V38.5328C17.8519 39.0026 18.235 39.3834 18.7077 39.3834H32.0528C32.5254 39.3834 32.9086 39.0026 32.9086 38.5328V35.7099C32.9086 35.2402 32.5254 34.8594 32.0528 34.8594Z" fill="#D12200"/>
<path opacity="0.1" d="M47.8097 39.3828H34.4646C33.992 39.3828 33.6088 39.7636 33.6088 40.2334V43.0563C33.6088 43.526 33.992 43.9068 34.4646 43.9068H47.8097C48.2823 43.9068 48.6655 43.526 48.6655 43.0563V40.2334C48.6655 39.7636 48.2823 39.3828 47.8097 39.3828Z" fill="#D12200"/>
<path opacity="0.1" d="M63.5678 43.9102H50.2226C49.75 43.9102 49.3669 44.291 49.3669 44.7607V47.5836C49.3669 48.0534 49.75 48.4342 50.2226 48.4342H63.5678C64.0404 48.4342 64.4235 48.0534 64.4235 47.5836V44.7607C64.4235 44.291 64.0404 43.9102 63.5678 43.9102Z" fill="#D12200"/>
<path opacity="0.1" d="M32.0528 28.0742H18.7077C18.235 28.0742 17.8519 28.455 17.8519 28.9248V31.7477C17.8519 32.2174 18.235 32.5982 18.7077 32.5982H32.0528C32.5254 32.5982 32.9086 32.2174 32.9086 31.7477V28.9248C32.9086 28.455 32.5254 28.0742 32.0528 28.0742Z" fill="#D12200"/>
<path opacity="0.1" d="M47.8097 32.5977H34.4646C33.992 32.5977 33.6088 32.9785 33.6088 33.4482V36.2711C33.6088 36.7409 33.992 37.1217 34.4646 37.1217H47.8097C48.2823 37.1217 48.6655 36.7409 48.6655 36.2711V33.4482C48.6655 32.9785 48.2823 32.5977 47.8097 32.5977Z" fill="#D12200"/>
<path opacity="0.1" d="M63.5678 37.1211H50.2226C49.75 37.1211 49.3669 37.5019 49.3669 37.9716V40.7946C49.3669 41.2643 49.75 41.6451 50.2226 41.6451H63.5678C64.0404 41.6451 64.4235 41.2643 64.4235 40.7946V37.9716C64.4235 37.5019 64.0404 37.1211 63.5678 37.1211Z" fill="#D12200"/>
<path opacity="0.1" d="M81.0754 34.8594H67.7302C67.2576 34.8594 66.8745 35.2402 66.8745 35.7099V38.5328C66.8745 39.0026 67.2576 39.3834 67.7302 39.3834H81.0754C81.548 39.3834 81.9311 39.0026 81.9311 38.5328V35.7099C81.9311 35.2402 81.548 34.8594 81.0754 34.8594Z" fill="#D12200"/>
<path opacity="0.1" d="M96.8323 39.3828H83.4871C83.0145 39.3828 82.6313 39.7636 82.6313 40.2334V43.0563C82.6313 43.526 83.0145 43.9068 83.4871 43.9068H96.8323C97.3049 43.9068 97.688 43.526 97.688 43.0563V40.2334C97.688 39.7636 97.3049 39.3828 96.8323 39.3828Z" fill="#D12200"/>
<path opacity="0.1" d="M112.59 43.9102H99.2451C98.7725 43.9102 98.3894 44.291 98.3894 44.7607V47.5836C98.3894 48.0534 98.7725 48.4342 99.2451 48.4342H112.59C113.063 48.4342 113.446 48.0534 113.446 47.5836V44.7607C113.446 44.291 113.063 43.9102 112.59 43.9102Z" fill="#D12200"/>
<path opacity="0.1" d="M81.0754 28.0742H67.7302C67.2576 28.0742 66.8745 28.455 66.8745 28.9248V31.7477C66.8745 32.2174 67.2576 32.5982 67.7302 32.5982H81.0754C81.548 32.5982 81.9311 32.2174 81.9311 31.7477V28.9248C81.9311 28.455 81.548 28.0742 81.0754 28.0742Z" fill="#D12200"/>
<path opacity="0.1" d="M96.8323 32.5977H83.4871C83.0145 32.5977 82.6313 32.9785 82.6313 33.4482V36.2711C82.6313 36.7409 83.0145 37.1217 83.4871 37.1217H96.8323C97.3049 37.1217 97.688 36.7409 97.688 36.2711V33.4482C97.688 32.9785 97.3049 32.5977 96.8323 32.5977Z" fill="#D12200"/>
<path opacity="0.1" d="M112.59 37.1211H99.2451C98.7725 37.1211 98.3894 37.5019 98.3894 37.9716V40.7946C98.3894 41.2643 98.7725 41.6451 99.2451 41.6451H112.59C113.063 41.6451 113.446 41.2643 113.446 40.7946V37.9716C113.446 37.5019 113.063 37.1211 112.59 37.1211Z" fill="#D12200"/>
<path opacity="0.1" d="M32.0528 19.0234H18.7077C18.235 19.0234 17.8519 19.4042 17.8519 19.874V22.6969C17.8519 23.1666 18.235 23.5474 18.7077 23.5474H32.0528C32.5254 23.5474 32.9086 23.1666 32.9086 22.6969V19.874C32.9086 19.4042 32.5254 19.0234 32.0528 19.0234Z" fill="#D12200"/>
<path opacity="0.1" d="M47.8097 23.5469H34.4646C33.992 23.5469 33.6088 23.9277 33.6088 24.3974V27.2203C33.6088 27.6901 33.992 28.0709 34.4646 28.0709H47.8097C48.2823 28.0709 48.6655 27.6901 48.6655 27.2203V24.3974C48.6655 23.9277 48.2823 23.5469 47.8097 23.5469Z" fill="#D12200"/>
<path opacity="0.1" d="M63.5678 28.0742H50.2226C49.75 28.0742 49.3669 28.455 49.3669 28.9248V31.7477C49.3669 32.2174 49.75 32.5982 50.2226 32.5982H63.5678C64.0404 32.5982 64.4235 32.2174 64.4235 31.7477V28.9248C64.4235 28.455 64.0404 28.0742 63.5678 28.0742Z" fill="#D12200"/>
<path opacity="0.1" d="M32.0528 12.2383H18.7077C18.235 12.2383 17.8519 12.6191 17.8519 13.0888V15.9117C17.8519 16.3815 18.235 16.7623 18.7077 16.7623H32.0528C32.5254 16.7623 32.9086 16.3815 32.9086 15.9117V13.0888C32.9086 12.6191 32.5254 12.2383 32.0528 12.2383Z" fill="#D12200"/>
<path opacity="0.1" d="M47.8097 16.7617H34.4646C33.992 16.7617 33.6088 17.1425 33.6088 17.6123V20.4352C33.6088 20.9049 33.992 21.2857 34.4646 21.2857H47.8097C48.2823 21.2857 48.6655 20.9049 48.6655 20.4352V17.6123C48.6655 17.1425 48.2823 16.7617 47.8097 16.7617Z" fill="#D12200"/>
<path opacity="0.1" d="M63.5678 21.2852H50.2226C49.75 21.2852 49.3669 21.666 49.3669 22.1357V24.9586C49.3669 25.4284 49.75 25.8092 50.2226 25.8092H63.5678C64.0404 25.8092 64.4235 25.4284 64.4235 24.9586V22.1357C64.4235 21.666 64.0404 21.2852 63.5678 21.2852Z" fill="#D12200"/>
<path opacity="0.1" d="M81.0754 19.0234H67.7302C67.2576 19.0234 66.8745 19.4042 66.8745 19.874V22.6969C66.8745 23.1666 67.2576 23.5474 67.7302 23.5474H81.0754C81.548 23.5474 81.9311 23.1666 81.9311 22.6969V19.874C81.9311 19.4042 81.548 19.0234 81.0754 19.0234Z" fill="#D12200"/>
<path opacity="0.1" d="M96.8323 23.5469H83.4871C83.0145 23.5469 82.6313 23.9277 82.6313 24.3974V27.2203C82.6313 27.6901 83.0145 28.0709 83.4871 28.0709H96.8323C97.3049 28.0709 97.688 27.6901 97.688 27.2203V24.3974C97.688 23.9277 97.3049 23.5469 96.8323 23.5469Z" fill="#D12200"/>
<path opacity="0.1" d="M112.59 28.0742H99.2451C98.7725 28.0742 98.3894 28.455 98.3894 28.9248V31.7477C98.3894 32.2174 98.7725 32.5982 99.2451 32.5982H112.59C113.063 32.5982 113.446 32.2174 113.446 31.7477V28.9248C113.446 28.455 113.063 28.0742 112.59 28.0742Z" fill="#D12200"/>
<path opacity="0.1" d="M81.0754 12.2383H67.7302C67.2576 12.2383 66.8745 12.6191 66.8745 13.0888V15.9117C66.8745 16.3815 67.2576 16.7623 67.7302 16.7623H81.0754C81.548 16.7623 81.9311 16.3815 81.9311 15.9117V13.0888C81.9311 12.6191 81.548 12.2383 81.0754 12.2383Z" fill="#D12200"/>
<path opacity="0.1" d="M96.8323 16.7617H83.4871C83.0145 16.7617 82.6313 17.1425 82.6313 17.6123V20.4352C82.6313 20.9049 83.0145 21.2857 83.4871 21.2857H96.8323C97.3049 21.2857 97.688 20.9049 97.688 20.4352V17.6123C97.688 17.1425 97.3049 16.7617 96.8323 16.7617Z" fill="#D12200"/>
<path opacity="0.1" d="M112.59 21.2852H99.2451C98.7725 21.2852 98.3894 21.666 98.3894 22.1357V24.9586C98.3894 25.4284 98.7725 25.8092 99.2451 25.8092H112.59C113.063 25.8092 113.446 25.4284 113.446 24.9586V22.1357C113.446 21.666 113.063 21.2852 112.59 21.2852Z" fill="#D12200"/>
<path opacity="0.1" d="M63 86.999C97.7939 86.999 126 81.8995 126 75.6089C126 69.3183 97.7939 64.2188 63 64.2188C28.2061 64.2188 0 69.3183 0 75.6089C0 81.8995 28.2061 86.999 63 86.999Z" fill="#D12200"/>
<path d="M27.6417 36.7447L22.3437 69.0263L46.2998 66.5079L45.2632 63.7605L26.5475 65.3059L30.9241 36.6875L27.6417 36.7447Z" fill="#3F3D56"/>
<path d="M21.4223 0.114474L53.6709 0L63 70.1724L30.6362 74.5224L21.4223 0.114474Z" fill="#3F3D56"/>
<path d="M24.9351 2.80469H50.9644L60.0631 68.0547L33.2276 71.7178L24.9351 2.80469Z" fill="white"/>
<path d="M49.4832 65.1203C49.6468 65.4317 49.7688 65.7682 49.9819 66.0487C50.6039 66.8752 51.7844 67.0045 52.6701 67.5437C52.7144 67.5661 52.7509 67.6012 52.7749 67.6444C52.8152 67.7395 52.7254 67.839 52.639 67.8986C51.9675 68.3668 51.0864 68.3771 50.2652 68.3714C49.9893 68.3811 49.7132 68.3549 49.4441 68.2935C49.0098 68.179 48.6378 67.878 48.2094 67.7555C47.9872 67.7003 47.7599 67.6685 47.531 67.6605L46.6315 67.5998C46.392 67.5964 46.1549 67.5526 45.9301 67.4704C45.8181 67.4278 45.7188 67.3577 45.6415 67.2666C45.5641 67.1756 45.5113 67.0665 45.4878 66.9496C45.4625 66.7596 45.5443 66.5753 45.5926 66.3898C45.7078 65.9502 45.6721 65.4191 46.0165 65.1191C46.1584 65.0112 46.3211 64.9332 46.4945 64.8902C47.1204 64.6805 47.7595 64.5115 48.4075 64.3842C48.9407 64.2801 49.2471 64.6693 49.4832 65.1203Z" fill="#3F3D56"/>
<path d="M39.3088 67.5967C39.3318 67.8405 39.3387 68.1198 39.1614 68.2904C39.0509 68.3815 38.9175 68.4409 38.7755 68.4621C37.9244 68.659 36.9754 68.6727 36.2348 68.2125C36.1577 68.1688 36.0897 68.1109 36.0344 68.042C35.9726 67.948 35.9376 67.8393 35.933 67.7272C35.9065 67.4032 36.0067 67.0838 36.0977 66.7713C36.313 66.0298 36.4766 65.2744 36.5872 64.5105C36.5964 64.4475 38.7606 64.8539 38.9045 65.0668C39.0853 65.3301 39.0865 65.962 39.1349 66.2756C39.2078 66.7137 39.2658 67.154 39.3088 67.5967Z" fill="#3F3D56"/>
<path d="M47.364 37.8081L47.9399 43.13C48.0551 44.2175 48.176 45.3107 48.0965 46.4017C48.0044 47.6609 47.6497 48.9201 47.7994 50.1678C47.8581 50.6532 47.9917 51.1294 48.0113 51.6182C48.015 51.9433 47.9984 52.2682 47.9618 52.5912C47.7015 55.8205 48.525 59.0247 48.9857 62.2311C49.0598 62.6266 49.0761 63.0306 49.034 63.4308C48.9742 63.8371 48.8544 64.3706 49.2183 64.5629L45.8 65.7946C45.3635 65.2509 45.6525 64.4049 45.5696 63.7147C45.4936 63.0931 45.1504 62.539 44.9673 61.9403C44.8014 61.4023 44.7669 60.8356 44.7127 60.277C44.4144 57.2354 43.4988 54.2729 43.2846 51.2244C43.2777 50.93 43.2391 50.6372 43.1694 50.351C43.0542 49.9721 42.8239 49.6413 42.6557 49.2852C42.3977 48.7507 42.2711 48.1646 42.1467 47.5853L41.4153 44.1797C40.6759 45.2741 40.7058 46.6981 40.5596 48.01C40.3546 49.8416 39.8962 51.6423 39.523 53.4509C39.4363 53.8401 39.3713 54.2337 39.3284 54.63C39.2316 55.6912 39.424 56.7627 39.3215 57.8227C39.2063 59.051 38.6868 60.2495 38.8124 61.4778C38.8815 62.1578 39.1441 62.8012 39.3215 63.4605C39.4988 64.1199 39.5864 64.8434 39.3157 65.4718C38.3697 65.1266 37.3535 65.0151 36.3546 65.1467C35.257 64.0306 35.0623 62.4738 34.9875 60.9112C34.9126 59.3486 35.0934 57.7838 34.8976 56.2361C34.84 55.7782 34.7502 55.3317 34.7352 54.875C34.6869 53.4109 35.3952 52.0406 35.7476 50.6177C36.0648 49.3368 36.095 48.0023 35.8363 46.7084C35.6635 45.8533 35.3664 45.0234 35.2604 44.1568C35.1165 42.9423 35.3606 41.7185 35.6059 40.5189C35.7706 39.7095 35.9342 38.9002 36.1208 38.0954C36.3212 37.2312 36.5596 36.3486 37.0951 35.6411C37.952 34.509 39.4735 34.0064 40.8959 34.1163C42.3183 34.2262 43.6462 34.8696 44.821 35.6709C45.7469 36.2859 46.6 37.0029 47.364 37.8081Z" fill="#192534"/>
<path d="M43.5426 17.4298C43.478 17.5329 43.4331 17.647 43.4101 17.7664C43.3813 18.001 43.5253 18.2162 43.6405 18.4211C43.788 18.6844 43.9014 18.9652 43.9779 19.2568C44.0327 19.4373 44.0496 19.6271 44.0274 19.8143C43.9993 19.9549 43.9488 20.0902 43.8777 20.2149C43.6554 20.6408 43.326 21.0346 42.878 21.212C42.531 21.339 42.1527 21.3542 41.7965 21.2555C41.4428 21.156 41.1083 20.9981 40.8072 20.7885C40.5534 20.6286 40.3251 20.4318 40.13 20.2046C39.9437 19.9563 39.7868 19.6874 39.6624 19.4033C39.4228 18.9054 39.1798 18.3731 39.2235 17.827C39.2258 17.7775 39.2351 17.7286 39.2512 17.6816C39.2886 17.5968 39.3408 17.5193 39.4055 17.4527C39.8969 16.8739 40.1488 16.1313 40.1104 15.375L41.7885 15.7539C42.1582 15.8375 42.5279 15.921 42.893 16.0252C43.1924 16.1111 43.6531 16.2301 43.8478 16.4957C44.0424 16.7613 43.675 17.1871 43.5426 17.4298Z" fill="#FBBEBE"/>
<path d="M42.6442 17.1446C44.3286 17.1446 45.694 15.7874 45.694 14.1133C45.694 12.4392 44.3286 11.082 42.6442 11.082C40.9598 11.082 39.5944 12.4392 39.5944 14.1133C39.5944 15.7874 40.9598 17.1446 42.6442 17.1446Z" fill="#FBBEBE"/>
<path d="M42.1536 20.2301C42.2826 19.9497 42.5613 19.7723 42.8158 19.596C43.0703 19.4197 43.3283 19.1942 43.3779 18.8885C43.3809 18.8194 43.3982 18.7516 43.4285 18.6893C43.5264 18.5428 43.7591 18.6161 43.8984 18.7237C44.2371 18.9858 44.4674 19.3579 44.692 19.7207C44.9825 20.162 45.2312 20.6292 45.4349 21.1162C45.7585 21.9644 45.7977 22.8905 45.8334 23.796C45.8656 24.6202 45.8967 25.457 45.6952 26.256C45.5685 26.762 45.3496 27.2531 45.337 27.774C45.299 29.6662 44.6379 31.4749 44.5918 33.3671C44.5883 33.9143 44.616 34.4612 44.6747 35.0053L44.783 36.2336C43.1084 36.1382 41.4383 35.992 39.7729 35.7951C39.7246 35.2296 39.5622 34.6813 39.4136 34.1341C38.8052 31.8971 38.4153 29.6069 38.2492 27.2955C38.1605 26.0683 38.0695 24.8457 37.9325 23.6231C37.8092 22.5116 37.5674 21.3932 37.7125 20.284C37.7884 19.7798 37.948 19.2916 38.1847 18.8393C38.2595 18.6591 38.3881 18.5061 38.5532 18.4009C38.6357 18.3612 38.7233 18.3331 38.8135 18.3173C39.0746 18.2647 39.3397 18.2337 39.6059 18.2246C39.671 18.2191 39.7365 18.2253 39.7994 18.2429C39.9116 18.2985 40.0038 18.3873 40.0632 18.497C40.5763 19.2638 41.3025 19.8659 42.1536 20.2301Z" fill="#F2F2F2"/>
<path d="M40.7392 19.9874C40.9535 20.2919 41.4072 20.364 41.6053 20.6743C41.6721 20.8039 41.7227 20.9411 41.7562 21.0829C41.8771 21.4664 42.1213 21.7995 42.2699 22.1739C42.4841 22.7119 42.4899 23.3071 42.4922 23.8852C42.5132 24.3457 42.4776 24.807 42.3862 25.2589C42.3171 25.5417 42.2042 25.8107 42.1213 26.09C41.9805 26.565 41.9282 27.0616 41.967 27.5553C41.967 27.6619 41.9956 27.7666 42.0499 27.8586C42.128 27.9506 42.23 28.0194 42.3447 28.0578C42.6822 28.2055 43.0358 28.3566 43.4043 28.3222C43.4799 28.3199 43.5532 28.2956 43.6151 28.2524C43.6578 28.2137 43.693 28.1676 43.7188 28.1162L43.9491 27.7293C44.1576 27.3755 44.3753 26.9795 44.2946 26.5754C44.2361 26.3668 44.1481 26.1675 44.0332 25.9835C43.886 25.6849 43.7605 25.3762 43.6577 25.0597C43.2903 24.01 42.9183 22.9454 42.8354 21.8373C42.7866 21.4156 42.8339 20.9884 42.9736 20.5873C43.0818 20.3404 43.2178 20.1065 43.379 19.8901C43.3425 19.8415 43.2921 19.805 43.2342 19.7856C43.1764 19.7662 43.114 19.7647 43.0554 19.7814C42.9395 19.8169 42.8273 19.8633 42.7202 19.9199C42.3816 20.0618 42.0061 20.0103 41.6641 19.913C41.5305 19.8741 41.3185 19.7413 41.1803 19.7505C41.1331 19.7562 40.7473 20.0011 40.7392 19.9874Z" fill="#D12200"/>
<path d="M43.4354 19.972C43.3663 19.9171 43.2592 19.8667 43.1982 19.9308C43.1777 19.9586 43.1628 19.9901 43.1544 20.0235C43.0945 20.1838 42.9183 20.2628 42.7582 20.3246C42.5981 20.3864 42.4254 20.4208 42.3286 20.3028C42.2981 20.2569 42.2831 20.2026 42.2858 20.1476C42.2885 20.0926 42.3087 20.0399 42.3436 19.9972C42.4144 19.9124 42.4998 19.8407 42.5958 19.7854C43.1256 19.4138 43.4865 18.8494 43.6001 18.2148C43.7487 18.3322 43.8471 18.5011 43.8754 18.6876C43.9134 18.8696 43.918 19.0574 43.956 19.2394C44.0125 19.5004 44.138 19.7442 44.1668 20.0086C44.1818 20.1494 44.1668 20.2914 44.1668 20.4322C44.172 20.5699 44.1881 20.7069 44.2152 20.842C43.9457 20.5581 43.7556 20.225 43.4354 19.972Z" fill="#F2F2F2"/>
<path d="M41.1043 19.1972C40.9892 19.0884 40.874 18.9854 40.7588 18.8744C40.2534 18.3841 39.8718 17.782 39.6451 17.1172C39.4977 17.2317 39.3353 17.3828 39.3318 17.5751C39.345 17.7112 39.3978 17.8405 39.4838 17.9471C39.9194 18.6288 40.2069 19.3934 40.3281 20.192C40.3903 20.0953 40.4765 20.0163 40.5783 19.9623C40.6802 19.9084 40.7943 19.8814 40.9097 19.884C41.0917 19.884 41.9083 20.3648 41.967 20.2435C42.0534 20.0534 41.2426 19.3265 41.1043 19.1972Z" fill="#F2F2F2"/>
<path d="M43.6762 18.2861C44.7596 19.3581 46.0858 20.1562 47.5437 20.6134C47.6886 20.6448 47.823 20.7126 47.9341 20.8103C48.0171 20.9133 48.0729 21.0353 48.0965 21.1652C48.3776 22.2572 48.472 23.3871 48.5653 24.5101C48.5897 24.6958 48.5858 24.8841 48.5538 25.0687C48.4858 25.3686 48.2716 25.6113 48.0608 25.8368C47.3997 26.5408 46.6453 27.2769 46.5336 28.2339C46.5251 28.4184 46.5032 28.602 46.468 28.7834C46.4104 28.9963 46.2825 29.184 46.2042 29.3912C45.8195 30.4112 46.6891 31.6464 46.1593 32.5965C46.4461 33.1441 46.6428 33.7339 46.7421 34.3434C46.7599 34.5744 46.8131 34.8014 46.8999 35.0165C47.0577 35.3439 47.3824 35.5522 47.6381 35.8178C48.4179 36.6122 48.5135 37.8279 48.5595 38.9372C48.5883 39.5622 48.5791 40.28 48.0988 40.6898C47.8213 40.929 47.4423 41.0069 47.0795 41.0664C46.597 41.1465 46.0718 41.2038 45.6445 40.9668C45.3381 40.7974 45.1297 40.5009 44.9304 40.2147C44.5526 39.6687 44.1737 39.1238 43.8155 38.564C43.2489 37.6814 42.7145 36.6729 42.878 35.6381C42.8319 36.6969 42.6073 37.7638 42.0845 38.6865C41.5616 39.6092 40.7197 40.3796 39.6981 40.6841C38.6765 40.9886 37.4821 40.7733 36.7208 40.0316C36.4723 39.7773 36.2589 39.4912 36.0862 39.181C35.6529 38.4434 35.3366 37.6437 35.1487 36.8103C35.0992 36.5939 35.0623 36.3524 35.1717 36.1589C35.2236 36.0673 35.303 35.9952 35.3572 35.9048C35.5391 35.5968 35.3641 35.2088 35.1879 34.8951C34.9195 34.9203 34.7272 34.6067 34.7514 34.3388C34.7755 34.0709 34.9368 33.8385 35.0508 33.5947C35.3848 32.8758 35.3111 32.039 35.1499 31.264C34.9886 30.489 34.7479 29.7186 34.7663 28.9276C34.7859 28.0908 34.1801 27.3376 33.7182 26.6381C33.4603 26.2443 33.1597 25.878 32.9351 25.4648C32.4668 24.5951 32.3585 23.5782 32.6333 22.6304C32.7946 22.1437 33.0061 21.675 33.2645 21.2315L33.6445 20.523C33.7153 20.3536 33.8251 20.2033 33.9652 20.0839C34.1053 19.9646 34.2716 19.8797 34.4507 19.8361L37.0802 18.8059C37.4164 18.6917 37.7356 18.5331 38.0292 18.3342C38.3505 18.0938 38.5901 17.7619 38.8965 17.5054C38.9411 17.4588 38.9947 17.4215 39.054 17.3958C39.1133 17.37 39.1772 17.3563 39.242 17.3555C39.4884 17.3772 39.576 17.6863 39.6013 17.9278C39.6589 18.4682 40.062 18.926 40.1991 19.4515C40.9408 22.3534 42.5106 25.0298 42.9414 27.9924C43.4251 26.8373 43.9088 25.68 44.5284 24.5925C44.6262 24.4364 44.7084 24.2711 44.7738 24.0991C44.8481 23.851 44.8759 23.5914 44.8555 23.3333C44.8244 22.5881 44.6252 21.86 44.4282 21.14C44.1726 20.1601 43.9422 19.2569 43.6762 18.2861Z" fill="#3F3D56"/>
<path d="M48.6874 27.152C48.738 27.6397 48.7876 28.1285 48.8786 28.6104C48.9845 29.1679 49.1458 29.7128 49.3058 30.2577C49.384 30.564 49.496 30.8607 49.6398 31.1425C49.692 31.2244 49.7334 31.3125 49.7631 31.4047C49.8195 31.6336 49.6905 31.8626 49.6352 32.0915C49.4694 32.7784 49.9669 33.5419 49.6537 34.175C49.5592 34.3673 49.3945 34.5264 49.3323 34.7324C49.2598 34.9694 49.3323 35.2224 49.3703 35.4674C49.4682 36.1542 49.2321 36.8525 48.9995 37.513L48.6033 38.628C48.2416 37.9595 47.8765 37.2841 47.3767 36.7105C47.1982 36.5045 47.0035 36.3133 46.8388 36.0958C46.5932 35.754 46.3992 35.3784 46.263 34.9809C45.9113 34.0363 45.7104 33.0428 45.6675 32.0366C45.6389 31.7505 45.6723 31.4617 45.7654 31.1895C45.8416 31.0321 45.927 30.8792 46.0211 30.7316C46.3298 30.1787 46.3931 29.5239 46.3873 28.892C46.3816 28.2601 46.3136 27.6259 46.3873 26.9975C46.4475 26.4727 46.6036 25.9633 46.848 25.4944C46.9922 25.1908 47.2065 24.9252 47.4734 24.7194C47.6726 24.5712 47.9156 24.4927 48.1645 24.4962C48.5411 24.518 48.4547 24.8396 48.487 25.1499L48.6874 27.152Z" fill="#3F3D56"/>
<path d="M31.7465 25.5923C31.5115 26.2792 31.2996 26.9721 31.1107 27.6712C30.9264 28.358 30.7617 29.0487 30.6166 29.7431C30.5421 30.0485 30.5004 30.3608 30.4922 30.6749C30.507 31.0406 30.5701 31.4028 30.68 31.7521C31.4217 34.4091 32.7738 36.86 34.2964 39.1643C34.7315 38.625 35.2483 38.1562 35.8282 37.7746C35.8757 37.7467 35.9153 37.7073 35.9434 37.6601C35.958 37.6156 35.9623 37.5684 35.9559 37.522C35.9495 37.4756 35.9326 37.4312 35.9065 37.3923C35.4862 36.536 34.8205 35.7816 34.6108 34.8509C34.5233 34.464 34.5199 34.0611 34.4208 33.6764C34.293 33.1785 34.0073 32.7229 33.9417 32.2123C33.8714 31.656 34.0569 31.0493 33.7943 30.5559C34.3298 30.3487 34.6396 29.8004 34.8665 29.2749C35.109 28.7374 35.2823 28.1716 35.3825 27.591C35.5402 26.4779 35.321 25.3443 34.7594 24.3686C34.4851 23.8819 34.1331 23.4427 33.7171 23.0682C33.58 22.9457 33.2564 22.5942 33.0571 22.5977C32.7911 22.6034 32.7059 23.0315 32.6299 23.2239C32.3223 24.0091 32.0183 24.7956 31.7465 25.5923Z" fill="#3F3D56"/>
<path d="M36.517 38.4077C36.5515 38.4329 36.5907 38.4672 36.5815 38.5084C36.5723 38.5496 36.5389 38.5599 36.5089 38.5771C36.3532 38.6869 36.237 38.8434 36.1772 39.0236C35.9858 39.4523 35.8189 39.8914 35.6774 40.3389C35.4196 39.9551 35.1165 39.6034 34.7744 39.2914C34.5118 39.051 34.2181 38.8232 34.0776 38.4981C34.0776 38.489 34.6811 38.046 34.7364 37.9979C34.9057 37.8479 35.1188 37.4324 35.2938 37.3408C35.4919 37.2378 35.6808 37.6419 35.8317 37.8044C36.0392 38.0278 36.2688 38.2299 36.517 38.4077Z" fill="#FBBEBE"/>
<path d="M45.8829 13.6407C45.8748 13.4907 45.8553 13.3247 45.7401 13.2274C45.639 13.1579 45.5172 13.1244 45.3946 13.1324C44.7231 13.1107 44.0286 13.2228 43.3951 12.9985C42.9782 12.8508 42.6223 12.5669 42.2158 12.3906C41.8092 12.2143 41.2886 12.1674 40.9604 12.4639C40.7116 12.6928 40.6436 13.0443 40.5573 13.3682C40.3671 14.0832 40.0285 14.7508 39.5633 15.328C39.2512 15.2319 39.0278 14.9548 38.8838 14.6641C38.3943 13.6727 38.635 12.4891 38.9828 11.4382C39.098 11.0856 39.2259 10.7365 39.3537 10.3885L39.6347 9.61921C40.0036 9.5832 40.3462 9.41372 40.5976 9.143L40.7185 9.4349C41.0308 9.42374 41.3322 9.31788 41.5823 9.13155C41.6791 9.31242 41.9278 9.3605 42.1294 9.30211C42.3309 9.24373 42.5048 9.13155 42.7053 9.07317C43.2408 8.90146 43.8121 9.16589 44.3741 9.19565C44.612 9.1899 44.8499 9.19678 45.087 9.21626C45.7504 9.32272 46.2192 9.94317 46.4219 10.5796C46.5567 11.0032 46.6684 11.524 47.0888 11.674C47.098 11.8343 46.8123 11.8652 46.7882 12.0174C46.7853 12.0682 46.7973 12.1187 46.8227 12.1628L47.2085 12.9859C47.0241 13.0319 46.8301 13.0223 46.6511 12.9584C46.4772 13.3648 45.9002 13.9509 45.8829 13.6407Z" fill="#192534"/>
<path d="M65.4348 15.43C65.6303 16.0577 65.7842 16.6975 65.8955 17.3452C65.9784 17.8305 66.0268 18.3697 65.7469 18.7749C66.8134 17.1803 67.9271 15.5376 69.5476 14.5085C69.2176 14.1529 68.9666 13.7322 68.8108 13.2739C68.6551 12.8156 68.5981 12.3298 68.6435 11.8481C68.6527 11.752 67.3133 12.2545 67.2107 12.3117C66.7408 12.5716 66.3101 12.8944 65.8517 13.1726C65.6144 13.3157 64.6262 13.6545 64.617 13.8594C64.617 13.9911 65.0098 14.394 65.0835 14.5325C65.2281 14.8203 65.3457 15.1207 65.4348 15.43Z" fill="#FBBEBE"/>
<path d="M70.3907 75.5742C70.1273 75.3899 69.8187 75.2798 69.4976 75.2556C69.1764 75.2314 68.8546 75.294 68.5663 75.4369C68.0446 75.7047 67.6933 76.2118 67.2188 76.5553C66.4034 77.1437 65.3265 77.1906 64.3717 77.5088C64.1183 77.5935 63.8488 77.7195 63.7417 77.9667C63.7058 78.0707 63.6915 78.1807 63.6996 78.2903C63.7077 78.3999 63.7381 78.5068 63.7889 78.6043C63.9485 78.9579 64.2282 79.2444 64.579 79.4137C65.0075 79.6174 65.5004 79.6266 65.9749 79.6323L70.0981 79.6804C71.3651 79.6953 72.64 79.7102 73.8989 79.867C74.1926 79.9036 74.5104 79.9437 74.7696 79.8006C75.1911 79.5716 75.2395 78.9924 75.2072 78.5151C75.1224 77.3056 74.8504 76.1164 74.401 74.9893C74.3515 74.8645 74.2859 74.7225 74.1465 74.6996C74.0476 74.6952 73.9504 74.726 73.8724 74.7866C72.7091 75.4735 71.2361 75.8616 69.9991 75.3121" fill="white"/>
<path d="M72.4546 49.4262C71.9939 52.0854 72.2945 54.8179 72.8128 57.4657C72.9082 57.9929 73.034 58.5142 73.1894 59.0271C73.3748 59.6109 73.6248 60.1718 73.7987 60.7591C74.2409 62.2473 74.1788 63.8384 74.1131 65.3918L73.8113 72.4606C73.786 73.0536 73.763 73.6603 73.9426 74.2258C74.0152 74.4547 74.1039 74.7409 73.9208 74.8954C73.8491 74.9466 73.7654 74.9785 73.6777 74.9882C72.8536 75.1391 72.0024 75.0122 71.2591 74.6276L71.1773 67.4867C71.152 65.2854 71.1255 63.0749 70.7846 60.901C70.5139 59.1725 70.044 57.4668 70.0129 55.7177C69.9807 53.8861 70.4322 52.0786 70.8929 50.3031C70.9919 49.923 71.3535 49.6448 71.6507 49.3873C71.7544 49.2856 71.8806 49.2096 72.0192 49.1652C72.1575 49.1274 72.3694 49.3106 72.4546 49.4262Z" fill="#3F3D56"/>
<path opacity="0.1" d="M72.4546 49.4262C71.9939 52.0854 72.2945 54.8179 72.8128 57.4657C72.9082 57.9929 73.034 58.5142 73.1894 59.0271C73.3748 59.6109 73.6248 60.1718 73.7987 60.7591C74.2409 62.2473 74.1788 63.8384 74.1131 65.3918L73.8113 72.4606C73.786 73.0536 73.763 73.6603 73.9426 74.2258C74.0152 74.4547 74.1039 74.7409 73.9208 74.8954C73.8491 74.9466 73.7654 74.9785 73.6777 74.9882C72.8536 75.1391 72.0024 75.0122 71.2591 74.6276L71.1773 67.4867C71.152 65.2854 71.1255 63.0749 70.7846 60.901C70.5139 59.1725 70.044 57.4668 70.0129 55.7177C69.9807 53.8861 70.4322 52.0786 70.8929 50.3031C70.9919 49.923 71.3535 49.6448 71.6507 49.3873C71.7544 49.2856 71.8806 49.2096 72.0192 49.1652C72.1575 49.1274 72.3694 49.3106 72.4546 49.4262Z" fill="black"/>
<path d="M63.8062 41.1176C63.6358 41.8147 63.9974 42.5371 63.9571 43.2537C63.9341 43.6875 63.7625 44.1202 63.8419 44.5461C63.9214 44.9719 64.2278 45.2924 64.3913 45.6828C64.5106 46.0088 64.5737 46.3525 64.5779 46.6993C64.6251 47.5556 64.5871 48.4164 64.5548 49.2693C64.5007 50.7002 64.4604 52.1391 64.6504 53.5574C64.8159 54.7862 65.152 55.9862 65.649 57.1233C65.7996 57.4326 65.9241 57.7539 66.021 58.0837C66.0846 58.3911 66.127 58.7024 66.1477 59.0156C66.2572 60.0339 66.5322 61.0279 66.962 61.9587C67.2557 62.5963 67.7682 63.1034 67.9306 63.7799C68.0849 64.4279 67.9813 65.1113 68.093 65.7672C68.1748 66.2537 68.374 66.7139 68.4846 67.1947C68.6285 67.8163 68.6251 68.4608 68.6976 69.095C68.905 70.9265 69.7423 72.7581 69.2424 74.5347C69.1422 74.8919 68.9867 75.2548 69.057 75.6188C69.0915 75.7974 69.1791 75.9737 69.1399 76.1511C69.1077 76.3022 68.9902 76.419 68.9303 76.5621C68.8151 76.8299 68.9372 77.1482 69.1422 77.3554C69.3609 77.5485 69.6151 77.6978 69.8908 77.795C70.7397 78.1555 71.6185 78.5219 72.5398 78.5138C72.6517 78.5198 72.7634 78.4994 72.8658 78.4543C73.0316 78.3685 73.1134 78.1819 73.1837 78.0102L73.6559 76.8494C73.7135 76.7086 73.771 76.5438 73.6916 76.4133C73.6362 76.3417 73.5693 76.2798 73.4935 76.2301C73.1122 75.9107 73.1986 75.3143 73.3 74.8347C73.5589 73.6027 73.7023 72.3496 73.7284 71.0914C73.7791 68.5821 73.3633 66.0877 72.9487 63.6117C72.8047 62.752 72.6596 61.8865 72.3728 61.0623C72.0861 60.2381 71.6634 59.4448 71.7325 58.5886C71.8062 57.6636 71.5643 56.694 71.7325 55.7817C71.9006 54.8693 72.1667 53.9764 72.3383 53.0652C72.5606 51.8827 72.6159 50.6773 72.6838 49.4776C72.7126 48.9877 72.7495 48.4817 72.9798 48.0467C73.1146 47.7925 73.3104 47.575 73.4612 47.3289C73.8505 46.689 73.9127 45.8957 74.2847 45.2455C74.4609 44.9376 74.704 44.6663 74.8329 44.3366C74.9235 44.0765 74.971 43.8036 74.9735 43.5284C75.01 42.8375 74.9713 42.1448 74.8583 41.4622C72.8977 40.4706 70.7233 39.9692 68.5237 40.0015C67.6818 40.0152 66.8307 40.0999 66.0406 40.3895C65.2874 40.6677 64.6009 41.0581 63.8062 41.1176Z" fill="#3385C3"/>
<path d="M68.5283 77.3841C68.1897 77.8031 68.2128 78.4018 67.9962 78.8951C67.7336 79.4938 67.1486 79.8773 66.5934 80.2265L63.1382 82.4015C62.9493 82.5159 62.7466 82.6567 62.6775 82.8697C62.6447 83.0056 62.6507 83.1479 62.6948 83.2806C62.7773 83.5679 62.931 83.8299 63.1419 84.0427C63.3528 84.2555 63.6141 84.4123 63.9018 84.4986C64.2076 84.571 64.5217 84.603 64.8359 84.5936L66.3896 84.6142C66.8629 84.6326 67.3369 84.6143 67.8073 84.5593C68.2381 84.4975 68.6573 84.375 69.0858 84.2971C69.8655 84.1563 70.6671 84.1689 71.448 84.0327C71.9261 83.9393 72.3984 83.8181 72.8623 83.6698C73.4267 83.5016 74.0014 83.3264 74.4851 82.9933C74.6183 82.9127 74.7263 82.797 74.7972 82.659C74.879 82.4701 74.8341 82.2538 74.788 82.0535L74.0463 78.8139C74.0044 78.5441 73.9055 78.2862 73.7561 78.0572C73.5914 77.8397 73.2954 77.6955 73.0385 77.7882C72.9326 77.8362 72.8325 77.8961 72.7402 77.9668C72.3602 78.2152 71.873 78.2564 71.4238 78.1785C71.1336 78.127 70.75 78.048 70.5162 77.8569C70.3389 77.7115 70.2859 77.486 70.135 77.3211C70.0292 77.2131 69.9018 77.1285 69.761 77.0726C69.6201 77.0168 69.4691 76.991 69.3176 76.9969C69.1661 77.0029 69.0175 77.0404 68.8815 77.1071C68.7456 77.1738 68.6252 77.2682 68.5283 77.3841Z" fill="white"/>
<path d="M66.2882 14.9828C68.5864 14.9828 70.4494 13.1311 70.4494 10.8469C70.4494 8.56266 68.5864 6.71094 66.2882 6.71094C63.99 6.71094 62.127 8.56266 62.127 10.8469C62.127 13.1311 63.99 14.9828 66.2882 14.9828Z" fill="#FBBEBE"/>
<path d="M63.0783 11.0916C63.4768 10.8695 63.4768 10.2296 63.8845 10.0167C64.2922 9.80374 64.7552 10.1735 65.0167 10.5467C65.3978 11.0932 65.6623 11.7115 65.7941 12.3634C65.831 12.5488 65.8655 12.7514 66.006 12.8808C66.1465 13.0102 66.3308 13.0262 66.5105 13.0445C67.0365 13.0964 67.5632 13.1437 68.0907 13.1864C68.6781 13.2334 69.2977 13.2712 69.831 13.0205C70.0414 12.9269 70.2222 12.7781 70.3538 12.59C70.4594 12.4094 70.5348 12.2131 70.5773 12.0085C70.8525 10.9679 71.1301 9.91478 71.1531 8.83873C71.1624 8.39457 71.1232 7.93439 70.9078 7.54518C70.7823 7.31623 70.598 7.11705 70.5462 6.8652C70.4944 6.61336 70.6614 6.29284 70.9239 6.32031C70.6866 6.33001 70.4502 6.28536 70.2329 6.18981C70.0244 6.07534 69.8701 5.82922 69.9438 5.60485C69.3587 5.67926 68.9326 5.1046 68.4765 4.73256C68.4023 4.65948 68.3022 4.61836 68.1978 4.61808C68.1177 4.63795 68.0403 4.66756 67.9674 4.70623C67.7371 4.78636 67.4964 4.63411 67.2603 4.56772C66.6268 4.39143 65.8218 4.81727 65.3518 4.35938C65.3968 4.65128 65.0363 4.84703 64.7391 4.84131C64.442 4.83559 64.1356 4.72684 63.8546 4.82528C63.8953 4.89927 63.9191 4.98129 63.9242 5.06546C63.9293 5.14964 63.9156 5.23389 63.8841 5.31221C63.8526 5.39052 63.8041 5.46095 63.7421 5.51847C63.6801 5.57598 63.606 5.61916 63.5252 5.64491L63.6646 5.94712C63.521 5.97565 63.3883 6.04351 63.2814 6.14303C63.1746 6.24255 63.0978 6.36977 63.0599 6.51034C62.9067 7.11132 62.9447 7.9653 62.9816 8.58345C63 8.85476 63.2661 10.9897 63.0783 11.0916Z" fill="#192534"/>
<path d="M66.6291 16.1809C64.5387 18.5173 64.0066 21.8061 63.5609 24.9026L62.9044 29.4747C62.7339 30.6607 62.5589 31.8466 62.4103 33.036C62.3067 33.8499 62.2099 34.6764 62.3228 35.4892C62.4115 36.1302 62.6268 36.7484 62.8065 37.3654C63.274 38.9837 63.5067 40.6601 63.4975 42.3438C63.6369 41.9363 64.1195 41.7715 64.5433 41.6799C68.0996 40.913 71.81 41.3068 75.1232 42.8029C75.7048 41.1831 75.5954 39.411 75.7578 37.6985C75.9881 35.2568 76.7817 32.8906 77.0166 30.4535C77.103 29.5457 77.1134 28.6333 77.1226 27.721C77.1295 27.0513 77.1364 26.3748 76.9959 25.7188C76.8393 24.9931 76.5087 24.3165 76.1667 23.6583C75.2211 21.8286 74.1705 20.0544 73.0201 18.3444C72.4412 17.4836 71.8373 16.6399 71.2084 15.8134C70.8898 15.3945 70.5646 14.9801 70.2329 14.5702C69.9116 14.173 69.7722 13.8285 69.262 14.0666C68.298 14.5153 67.3305 15.3967 66.6291 16.1809Z" fill="#D12200"/>
<path d="M67.8269 35.6276C67.317 35.6459 66.8063 35.6298 66.2986 35.5795C65.9219 35.5429 65.5373 35.4879 65.1699 35.5795C65.0101 35.6195 64.8606 35.6924 64.731 35.7936C64.683 35.836 64.6485 35.8915 64.6318 35.9532C64.615 36.0148 64.6167 36.08 64.6366 36.1408C64.6565 36.2015 64.6938 36.2551 64.7439 36.2951C64.794 36.3351 64.8548 36.3597 64.9188 36.3659L65.3127 36.4003C65.5626 36.422 65.8229 36.4472 66.0175 36.6292C66.0975 36.7007 66.1483 36.7989 66.1604 36.9051C66.1845 37.1718 65.9519 37.3172 65.7434 37.4282C65.4471 37.5665 65.173 37.7479 64.9303 37.9663C64.7402 38.1488 64.6208 38.3919 64.5928 38.6531C64.592 38.6764 64.5972 38.6995 64.6082 38.7201C64.6191 38.7407 64.6353 38.7581 64.6552 38.7705C64.675 38.7829 64.6978 38.7899 64.7212 38.7908C64.7446 38.7917 64.7679 38.7865 64.7886 38.7756C65.2493 38.5466 65.5499 37.8678 66.0555 37.9811C65.5956 38.1259 65.2017 38.427 64.943 38.8317C64.8791 38.9283 64.85 39.0435 64.8603 39.1587C64.8706 39.2738 64.9198 39.3821 64.9998 39.466C65.0798 39.5499 65.186 39.6044 65.3011 39.6208C65.4162 39.6372 65.5335 39.6145 65.634 39.5563C65.7089 39.5127 65.7812 39.465 65.8505 39.4132C66.1931 39.1376 66.4999 38.8207 66.7639 38.4699C66.3953 39.2426 66.0221 40.147 66.446 40.9151C66.4671 40.9574 66.5001 40.9926 66.541 41.0166C66.5819 41.0406 66.6289 41.0522 66.6763 41.0502C66.8099 41.0364 66.8491 40.9117 66.871 40.8018C66.9401 40.4481 66.9574 40.0749 67.1324 39.7601C67.5378 39.0297 68.5375 38.9587 69.2988 38.6027C70.2122 38.1815 70.8376 37.2748 71.0898 36.3064C71.178 36.024 71.1935 35.724 71.1347 35.4341C70.9654 34.7827 70.1569 34.6328 69.6374 34.9476C69.0005 35.3494 68.6308 35.6024 67.8269 35.6276Z" fill="#FBBEBE"/>
<path opacity="0.1" d="M67.0184 22.8132C67.8246 24.0507 69.224 24.7478 70.4241 25.6167C70.7169 25.8062 70.9722 26.0475 71.1773 26.3287C71.4802 26.7935 71.5228 27.3841 71.4607 27.9313C71.3823 28.6537 71.1485 29.3485 70.917 30.0376L70.4137 31.5315C70.0947 32.4794 69.7653 33.4467 69.1583 34.2434C69.0028 34.446 68.822 34.6624 68.8289 34.9165C68.8423 35.0633 68.8931 35.2043 68.9764 35.3263C69.1706 35.6414 69.4266 35.9144 69.7291 36.1291C70.0316 36.3439 70.3745 36.496 70.7374 36.5764C70.9546 36.6313 71.1823 36.6313 71.3996 36.5764C71.7106 36.4848 71.9444 36.233 72.1609 35.9949C73.1975 34.8581 74.234 33.7054 74.9827 32.3718C75.714 31.0702 76.1517 29.6244 76.5548 28.1923C76.7208 27.6651 76.8365 27.1236 76.9003 26.5748C76.9855 25.5446 76.7137 24.5143 76.2692 23.5836C75.8246 22.6529 75.213 21.8104 74.583 20.9919C73.9884 20.188 73.3277 19.4345 72.6078 18.7391C71.3547 17.5749 69.8217 16.8903 68.1448 17.5509C66.9608 18.0179 66.5174 18.9921 66.4114 20.2398C66.3217 21.1408 66.5352 22.0458 67.0184 22.8132Z" fill="black"/>
<path d="M67.4376 22.5004C68.2439 23.7378 69.6444 24.435 70.8433 25.3038C71.1352 25.4952 71.3893 25.7381 71.5931 26.0204C71.896 26.4852 71.9386 27.0747 71.8764 27.6231C71.797 28.3454 71.5643 29.0402 71.3317 29.7294L70.8283 31.2175C70.5093 32.1654 70.1799 33.1315 69.573 33.9294C69.4186 34.132 69.2378 34.3472 69.2447 34.6025C69.2574 34.7491 69.3082 34.89 69.3921 35.0112C69.5861 35.3264 69.8418 35.5995 70.1442 35.8145C70.4465 36.0294 70.7892 36.1817 71.152 36.2624C71.3697 36.3173 71.5977 36.3173 71.8154 36.2624C72.1264 36.1719 72.359 35.919 72.5767 35.682C73.6132 34.5441 74.6498 33.3925 75.3984 32.0589C76.1298 30.7573 76.5674 29.3115 76.9706 27.8783C77.137 27.3516 77.2527 26.8104 77.3161 26.262C77.4013 25.2317 77.1295 24.2014 76.6861 23.2696C76.2427 22.3378 75.6299 21.4964 74.9999 20.6779C74.4033 19.8782 73.7411 19.1289 73.0201 18.4377C71.7682 17.2746 70.2352 16.5889 68.5583 17.2506C67.3731 17.7176 66.9309 18.6907 66.8238 19.9396C66.7392 20.8371 66.955 21.7372 67.4376 22.5004Z" fill="#D12200"/>
<path d="M92.9049 63.559C92.9057 63.8575 92.8748 64.1552 92.8127 64.4473C92.8012 64.5022 92.7885 64.5617 92.7759 64.6087C92.4488 65.9125 91.5262 66.8661 90.4252 66.9268C90.3883 66.9268 90.3515 66.9268 90.31 66.9268C89.1456 66.9268 88.1609 65.9286 87.8361 64.5537C87.8269 64.5171 87.8188 64.4805 87.8107 64.4393C87.7486 64.1472 87.7177 63.8494 87.7186 63.5509C87.7186 61.6885 88.8784 60.1797 90.31 60.1797C91.7416 60.1797 92.9049 61.6999 92.9049 63.559Z" fill="#3F3D56"/>
<path opacity="0.1" d="M92.9048 63.561C92.9057 63.8595 92.8748 64.1573 92.8127 64.4494C92.8012 64.5043 92.7885 64.5638 92.7758 64.6108C92.7367 64.6108 92.6987 64.6108 92.6607 64.6108C92.3755 64.5955 92.092 64.5572 91.813 64.4963C91.5658 64.5722 91.3133 64.6296 91.0574 64.668C90.8613 64.6973 90.6637 64.7157 90.4654 64.7229H90.265C90.0278 64.723 89.7908 64.7073 89.5556 64.676C89.1753 64.6255 88.8018 64.5334 88.4419 64.4013C88.2448 64.4665 88.0441 64.52 87.8406 64.5615C87.8314 64.5249 87.8234 64.4883 87.8153 64.4471C87.7532 64.155 87.7223 63.8572 87.7232 63.5587C87.7232 61.6963 88.883 60.1875 90.3146 60.1875C91.7462 60.1875 92.9048 61.702 92.9048 63.561Z" fill="black"/>
<path d="M98.4332 57.2802C98.4343 56.4606 98.2409 55.6523 97.8688 54.9209L94.8213 55.863L97.4968 54.2993C97.048 53.6551 96.4594 53.1193 95.7745 52.7314C95.0896 52.3435 94.3258 52.1133 93.5394 52.0579C93.4143 51.8691 93.2769 51.6886 93.1283 51.5176L88.7517 52.8718L92.3416 50.7735C91.6549 50.2496 90.8488 49.9021 89.9948 49.7616C89.1407 49.6212 88.265 49.6921 87.4451 49.9682C86.6252 50.2442 85.8864 50.7169 85.2941 51.3443C84.7017 51.9718 84.2742 52.7347 84.0491 53.5655L87.798 57.8548L83.7312 54.9312C82.7011 55.6574 81.9677 56.7273 81.6647 57.946C81.3617 59.1646 81.5093 60.4509 82.0806 61.5705C82.6519 62.69 83.6089 63.5683 84.7771 64.0453C85.9454 64.5223 87.2472 64.5663 88.4453 64.1692C89.5291 64.5652 90.7134 64.5977 91.8176 64.2619C92.5873 64.4303 93.3853 64.425 94.1527 64.2465C94.9201 64.0679 95.6375 63.7206 96.2521 63.2301C96.8667 62.7397 97.3628 62.1185 97.704 61.4123C98.0451 60.7061 98.2227 59.9329 98.2235 59.1495C98.2235 59.035 98.2235 58.9206 98.212 58.8061C98.3613 58.3111 98.4358 57.7969 98.4332 57.2802Z" fill="#D12200"/>
<path opacity="0.1" d="M98.3422 58.2494C96.7328 57.9462 95.0824 57.9253 93.4657 58.1876C91.6356 58.4887 89.7652 59.1503 87.9754 58.6672C86.925 58.3833 86.0174 57.7263 84.9912 57.3611C84.0011 57.0178 82.9346 56.9544 81.9103 57.1779C81.5201 58.106 81.4068 59.1261 81.5842 60.1163C81.7616 61.1066 82.2221 62.0252 82.9106 62.7623C83.5992 63.4994 84.4867 64.0239 85.4671 64.2732C86.4476 64.5224 87.4795 64.4858 88.4395 64.1677C89.5233 64.5637 90.7077 64.5962 91.8118 64.2604C92.5816 64.4288 93.3795 64.4235 94.1469 64.245C94.9144 64.0664 95.6318 63.7191 96.2463 63.2286C96.8609 62.7382 97.357 62.117 97.6982 61.4108C98.0394 60.7046 98.2169 59.9314 98.2178 59.148C98.2178 59.0336 98.2178 58.9191 98.2063 58.8046C98.2618 58.6222 98.3072 58.4368 98.3422 58.2494Z" fill="black"/>
</g>
<defs>
<clipPath id="clip0_5485_9755">
<rect width="126" height="87" fill="white"/>
</clipPath>
</defs>
</svg>
