<svg width="865" height="989" viewBox="0 0 865 989" fill="none" xmlns="http://www.w3.org/2000/svg">
<path d="M469.523 629.007L477.603 612.412C483.929 599.417 490.937 588.818 498.624 580.613C506.312 572.408 515.72 565.801 526.848 560.792C538.062 555.607 551.905 551.268 568.377 547.775C585.372 544.102 599.179 540.506 609.799 536.987C620.594 533.554 629.282 529.095 635.863 523.609C642.705 518.034 648.435 510.505 653.052 501.022C660.319 486.096 660.741 472.29 654.318 459.605C648.156 446.829 635.943 435.995 617.68 427.103C601.525 419.238 585.224 414.125 568.777 411.765C552.33 409.405 535.503 408.273 518.295 408.367L519.004 351.363C539.259 350.363 559.976 351.76 581.155 355.555C602.595 359.26 624.554 366.584 647.031 377.528C682.855 394.969 706.28 417.128 717.308 444.003C728.512 470.963 727.188 498.668 713.337 527.116C705.728 542.745 696.729 554.981 686.34 563.826C676.037 572.495 663.747 579.22 649.472 584C635.458 588.69 619.168 592.924 600.602 596.701C585.264 600.095 573.028 603.587 563.894 607.178C555.021 610.678 547.862 615.121 542.415 620.507C537.145 625.978 532.286 633.28 527.84 642.411L521.941 654.528L469.523 629.007ZM418.218 708.95C425.229 694.551 433.833 686.249 444.029 684.045C454.487 681.751 465.16 683.254 476.048 688.555C486.584 693.685 494.174 701.074 498.818 710.721C503.548 720.192 502.407 732.127 495.396 746.527C488.556 760.575 479.822 768.922 469.193 771.568C458.649 774.037 448.11 772.707 437.573 767.577C426.686 762.276 418.963 754.715 414.404 744.892C410.107 734.979 411.378 722.999 418.218 708.95Z" fill="#2A2C2C" fill-opacity="0.06"/>
<path d="M82.6172 510.336V491.879C82.6172 477.426 84.2773 464.828 87.5977 454.086C90.918 443.344 96.4844 433.285 104.297 423.91C112.109 414.34 122.656 404.379 135.938 394.027C149.609 383.285 160.449 374.008 168.457 366.195C176.66 358.383 182.52 350.57 186.035 342.758C189.746 334.75 191.602 325.473 191.602 314.926C191.602 298.324 185.938 285.727 174.609 277.133C163.477 268.344 147.754 263.949 127.441 263.949C109.473 263.949 92.5781 266.488 76.7578 271.566C60.9375 276.645 45.3125 282.992 29.8828 290.609L5.56641 239.047C23.3398 229.281 42.5781 221.469 63.2812 215.609C84.1797 209.555 107.129 206.527 132.129 206.527C171.973 206.527 202.734 216.195 224.414 235.531C246.289 254.867 257.227 280.355 257.227 311.996C257.227 329.379 254.492 344.32 249.023 356.82C243.555 369.125 235.449 380.551 224.707 391.098C214.16 401.449 201.367 412.387 186.328 423.91C174.023 433.676 164.551 442.172 157.91 449.398C151.465 456.43 146.973 463.559 144.434 470.785C142.09 478.012 140.918 486.703 140.918 496.859V510.336H82.6172ZM71.4844 604.672C71.4844 588.656 75.5859 577.426 83.7891 570.98C92.1875 564.34 102.441 561.02 114.551 561.02C126.27 561.02 136.328 564.34 144.727 570.98C153.125 577.426 157.324 588.656 157.324 604.672C157.324 620.297 153.125 631.625 144.727 638.656C136.328 645.492 126.27 648.91 114.551 648.91C102.441 648.91 92.1875 645.492 83.7891 638.656C75.5859 631.625 71.4844 620.297 71.4844 604.672Z" fill="#2A2C2C" fill-opacity="0.06"/>
</svg>
