<svg width="128" height="99" viewBox="0 0 128 99" fill="none" xmlns="http://www.w3.org/2000/svg">
<g clip-path="url(#clip0_5485_9967)">
<path d="M39.7704 54.8311C40.3118 54.1031 40.6703 53.2566 40.8182 52.3618L46.8423 45.0485L43.287 42.2773L37.5585 49.9945C36.7565 50.4131 36.0654 51.0189 35.5443 51.7617C34.2156 53.5993 34.0826 55.7777 35.2505 56.6242C36.4165 57.4726 38.4399 56.6687 39.7686 54.8311H39.7704Z" fill="#FFB6B6"/>
<path d="M64.17 25.8056L56.6343 20.7578L41.3411 44.0833L45.3233 48.3679L64.17 25.8056Z" fill="#D12200"/>
<path d="M0 54.1932C0 54.3543 0.129353 54.484 0.29012 54.484H127.71C127.871 54.484 128 54.3543 128 54.1932C128 54.032 127.871 53.9023 127.71 53.9023H0.29012C0.129353 53.9023 0 54.032 0 54.1932Z" fill="#3F3D56"/>
<path d="M51.3086 19.2747L50.4678 13.4674L57.8927 11.5742L58.8795 16.7128L51.3086 19.2747Z" fill="#FFB6B6"/>
<path d="M28.914 81.4893L29.7954 89.7325L35.8639 87.8672L34.8846 81.293L28.914 81.4893Z" fill="#FFB6B6"/>
<path d="M50.3515 45.6719C50.3515 45.6719 30.4792 49.4989 28.1305 55.2896C25.7819 61.0802 28.5223 82.7663 28.5223 82.7663L35.2763 83.4536L38.1147 58.5276C38.1147 58.5276 55.3445 58.233 56.6158 56.1732C57.8872 54.1133 57.6932 46.6537 57.6932 46.6537L50.3515 45.6719Z" fill="#3385C3"/>
<path d="M28.9935 85.6787L25.0574 89.5984C25.0574 89.5984 18.3403 95.1297 22.6478 94.8351C26.9552 94.5406 38.1147 91.8916 38.0167 89.8299C37.9188 87.7682 36.1559 83.6484 36.1559 83.6484L28.9916 85.6768H28.9935V85.6787Z" fill="#2F2E41"/>
<path d="M51.9203 83.8636L56.3589 90.8583L60.9731 86.4884L57.1849 81.0312L51.9203 83.8636Z" fill="#FFB6B6"/>
<path d="M55.2761 42.2297C55.2761 42.2297 39.1625 54.5 39.6189 60.7333C40.0772 66.9667 52.1328 85.1814 52.1328 85.1814L58.4896 82.7918L50.0004 59.1921C50.0004 59.1921 65.3102 51.2638 65.5375 48.852C65.7648 46.4402 62.2889 39.8438 62.2889 39.8438L55.2743 42.2297H55.2761Z" fill="#3385C3"/>
<path d="M53.977 87.1184L51.7355 93.0961C51.7355 93.0961 48.4851 100.793 52.2141 98.6126C55.9432 96.4323 64.7706 89.0949 63.7709 87.2906C62.7712 85.4864 59.3673 82.5781 59.3673 82.5781L53.977 87.1184Z" fill="#2F2E41"/>
<path d="M53.9105 15.2866C57.2477 15.2866 59.9531 12.5746 59.9531 9.22924C59.9531 5.88385 57.2477 3.17188 53.9105 3.17188C50.5732 3.17188 47.8679 5.88385 47.8679 9.22924C47.8679 12.5746 50.5732 15.2866 53.9105 15.2866Z" fill="#FFB6B6"/>
<path d="M58.3787 13.8789L50.8411 19.4732L49.6659 43.8101L46.8275 46.5572L56.6158 56.1749C56.6158 56.1749 67.3835 52.8387 66.3062 47.7353L65.2289 42.632L65.6169 36.9377C66.1861 28.6111 63.599 20.3771 58.375 13.8808H58.3787V13.8789Z" fill="#D12200"/>
<path d="M58.2567 14.0041L54.5794 13.8818C54.5794 13.8818 55.5329 8.10602 53.26 8.13751L50.9853 8.17085L51.2052 7.15758C51.2052 7.15758 46.0662 3.68618 48.4222 2.23018C50.7801 0.776045 52.4248 -0.531754 53.7719 0.218471C55.1208 0.968695 57.852 1.26138 57.852 1.26138C57.852 1.26138 62.6972 3.30643 62.5531 5.0162C62.4089 6.72597 61.3076 14.2153 58.2549 14.0022H58.2567V14.0041Z" fill="#2F2E41"/>
<path d="M42.217 55.219C42.7215 54.4651 43.0393 53.6019 43.1428 52.7016L48.801 45.1012L45.1145 42.5078L39.7722 50.4972C38.9906 50.9548 38.3309 51.5957 37.8467 52.3608C36.6086 54.2632 36.5846 56.4435 37.7913 57.2326C38.998 58.0217 40.9789 57.1196 42.217 55.219Z" fill="#FFB6B6"/>
<path d="M65.1605 25.0254L57.3882 20.3555L43.2574 44.409L47.4447 48.4898L65.1605 25.0254Z" fill="#D12200"/>
<path d="M104.68 60.957L106.339 76.8877L100.012 77.3971L99.6496 61.9351L104.68 60.957Z" fill="#FFB6B6"/>
<path d="M106.415 73.375L111.515 75.5645C111.515 75.5645 119.793 78.2227 115.682 79.5417C111.57 80.8606 100.222 82.524 99.5553 80.5716C98.8882 78.6192 99.0102 74.1382 99.0102 74.1382L106.415 73.3768V73.375Z" fill="#2F2E41"/>
<path d="M79.1638 40.5977L81.7934 41.861C81.7934 41.861 101.119 40.7736 102.431 44.3673C103.743 47.9628 106.28 69.4433 106.28 69.4433L99.4574 69.8823L96.4841 55.328L79.1657 40.5977H79.1638Z" fill="#2F2E41"/>
<path d="M97.4672 44.9444C96.8186 44.3108 96.0295 43.8422 95.1629 43.5773L88.7248 36.6289L85.515 39.7965L92.391 46.5041C92.6996 47.3562 93.2078 48.1231 93.873 48.7381C95.5158 50.3015 97.652 50.7183 98.6443 49.6717C99.6366 48.6251 99.11 46.5078 97.4672 44.9462V44.9444Z" fill="#FFB6B6"/>
<path d="M71.9792 16.8789L65.9939 23.7013L87.0488 41.9698L91.809 38.578L71.9792 16.8789Z" fill="#D12200"/>
<path d="M95.052 60.6324L84.8627 72.9694L80.0693 68.7978L90.8333 57.7148L95.052 60.6324Z" fill="#FFB6B6"/>
<path d="M87.2354 69.5864L89.2459 74.7694C89.2459 74.7694 93.1468 82.5569 89.3291 80.5359C85.5113 78.5149 76.3846 71.5555 77.3067 69.7105C78.2288 67.8655 81.5088 64.8164 81.5088 64.8164L87.2354 69.5845V69.5864Z" fill="#2F2E41"/>
<path d="M67.62 45.5977C67.62 45.5977 63.7709 54.7153 70.0685 54.7153C76.3661 54.7153 91.1474 54.1892 91.1474 54.1892L86.7735 61.9045L91.9347 64.5349C91.9347 64.5349 102.78 54.2763 102.08 49.6304C101.379 44.9846 81.7934 41.8633 81.7934 41.8633L77.8371 42.9062L67.62 45.5977Z" fill="#2F2E41"/>
<path d="M67.0989 2.05859C67.0989 2.05859 73.8881 2.41981 74.4961 5.03171C75.104 7.64175 73.7126 10.3074 75.8968 10.2796C78.081 10.2518 78.8442 11.2262 78.8442 11.2262C78.8442 11.2262 76.6156 17.5521 73.1157 17.9152C69.6158 18.2783 67.0989 2.05859 67.0989 2.05859Z" fill="#2F2E41"/>
<path d="M71.6521 19.5053L71.8628 13.6406L64.2772 12.5625L63.8484 17.777L71.6521 19.5053Z" fill="#FFB6B6"/>
<path d="M73.7125 7.87831C74.7714 11.0496 73.0639 14.4821 69.9003 15.5436C66.7367 16.605 63.3126 14.8934 62.2537 11.722C61.1949 8.55073 62.9023 5.11822 66.0659 4.05679C69.2295 2.99536 72.6537 4.70699 73.7125 7.87831Z" fill="#FFB6B6"/>
<path d="M72.6796 17.2082L65.7352 15.7578L64.4417 27.3872C64.1109 28.6765 64.7503 33.5743 65.0903 34.8598L67.1821 48.9659L81.7934 41.8601L78.4653 33.5946L79.1879 27.6484L72.6777 17.2082H72.6796Z" fill="#D12200"/>
<path d="M75.9799 32.8044C75.0929 32.9896 74.2651 33.3842 73.561 33.9566L64.2144 35.4274L65.0422 39.8657L74.4332 37.8948C75.311 38.1134 76.2294 38.1189 77.109 37.9114C79.3209 37.4187 80.8583 35.8757 80.5461 34.466C80.2338 33.0563 78.1881 32.3116 75.9781 32.8044H75.9799Z" fill="#FFB6B6"/>
<path d="M70.4565 24.5455L64.1866 19.168L54.9361 35.4302C54.6626 39.2203 58.1126 42.2026 61.8121 41.3709L70.1091 39.3425L68.5255 32.6498L63.8614 32.4775L70.4602 24.5437H70.4565V24.5455Z" fill="#D12200"/>
<path d="M63.3347 3.23327C63.3347 3.23327 55.8988 5.28759 57.5859 8.24032C59.2731 11.1931 61.254 12.0229 61.0082 13.6901C60.7625 15.3573 62.7194 21.824 65.6963 20.8256C68.6733 19.8271 73.1175 17.9154 73.1175 17.9154C73.1175 17.9154 66.842 12.6305 67.9471 11.734C69.0521 10.8374 65.5651 4.50957 65.5651 4.50957C65.5651 4.50957 69.1039 2.79425 70.9795 3.30922C72.8551 3.82418 73.901 3.65006 73.901 3.65006C73.901 3.65006 68.7916 -1.14582 66.5205 0.760305C64.2494 2.66643 63.3366 3.23512 63.3366 3.23512L63.3347 3.23327Z" fill="#2F2E41"/>
</g>
<defs>
<clipPath id="clip0_5485_9967">
<rect width="128" height="99" fill="white"/>
</clipPath>
</defs>
</svg>
