<svg width="163" height="113" viewBox="0 0 163 113" fill="none" xmlns="http://www.w3.org/2000/svg">
<g clip-path="url(#clip0_5485_9731)">
<path d="M61.4276 22.0605C60.1862 17.5374 70.1988 13.6587 72.8281 17.3012C73.1937 16.7833 74.5448 16.4688 75.1648 16.6276C75.7847 16.7865 76.3061 17.1836 76.8148 17.568C77.5142 18.105 78.239 18.661 78.6682 19.433C79.1006 20.2019 79.1673 21.2503 78.5856 21.9175C78.1246 22.4481 76.7639 22.7912 76.0708 22.931C75.5876 23.0295 75.1807 23.1089 74.831 23.1661C74.5194 22.7118 74.3604 22.1494 74.4177 21.5998C73.9472 21.9111 73.6292 22.4449 73.5784 23.0104C73.5688 23.128 77.4856 37.5298 77.4856 37.5298C77.0818 37.7681 76.5827 37.9905 76.0072 38.1938C75.0313 36.7228 74.2301 34.9881 73.7024 33.174C73.5816 34.2955 73.6006 35.5123 73.7469 36.7482C73.8232 37.4059 73.9376 38.0667 74.0839 38.7275C69.4296 39.7315 62.4291 39.4011 59.3835 35.1311C59.3829 35.1134 59.3824 35.0957 59.3819 35.078C59.3601 34.2791 58.2693 34.0805 57.9774 34.8247C57.9035 35.013 57.8355 35.1761 57.7748 35.3058C56.8878 32.1351 58.0355 28.4655 61.4276 22.0605Z" fill="#2F2E41"/>
<path d="M124.693 57.9288C123.591 59.234 121.64 59.4 120.334 58.2995C120.207 58.1929 120.09 58.0763 119.982 57.9509L105.283 62.6033L102.996 58.8567L120.494 53.4586C121.867 52.4464 123.801 52.738 124.814 54.1099C125.661 55.2579 125.611 56.8366 124.693 57.9288Z" fill="#FFB6B6"/>
<path d="M72.6393 46.3057C72.6393 46.3057 79.1484 38.9892 81.9837 42.0971C84.8191 45.2051 93.6651 58.8245 93.6651 58.8245L114.314 54.4708L116.311 59.9168L92.8649 67.5097C91.1023 68.0805 89.1706 67.4886 88.0312 66.0285L72.6393 46.3057Z" fill="#D12200"/>
<path d="M86.7765 113H54.4918L54.4624 112.748L54.4435 112.58L54.1662 110.229L53.7735 106.881L53.6222 105.595C53.6117 105.53 53.6012 105.467 53.5928 105.402C53.4605 104.564 53.3849 103.722 53.3576 102.883C53.3177 101.728 53.3702 100.576 53.4941 99.4383V99.432C53.5613 98.817 53.6474 98.2083 53.7546 97.6059C53.889 96.8313 54.0507 96.0694 54.2377 95.3242C54.4519 94.4594 54.6955 93.6177 54.9623 92.8054C55.2689 91.8546 55.605 90.9436 55.9515 90.083C55.9893 89.9907 56.0272 89.8983 56.0629 89.808L56.065 89.8059C57.8923 85.354 59.9674 82.3125 59.9674 82.3125H83.4873C83.4873 82.3125 84.5753 87.0835 85.1151 91.0234C85.2012 91.6468 85.2726 92.2471 85.3251 92.8054C85.4196 93.836 85.4469 94.7218 85.365 95.3242C85.3146 95.6979 85.2222 95.9623 85.0794 96.0841C83.7855 97.1882 85.2663 99.5306 85.2663 99.5306C85.2663 99.5306 86.3753 101.225 85.4091 102.177C85.218 102.366 85.1088 102.61 85.0563 102.883C84.9722 103.334 85.0458 103.859 85.1613 104.323C85.2768 104.789 85.4364 105.194 85.5246 105.402C85.5645 105.494 85.5898 105.546 85.5898 105.546L85.7536 106.841L85.9132 108.088L86.1841 110.229L86.2661 110.607L86.6882 112.58L86.7239 112.748L86.7765 113Z" fill="#3385C3"/>
<path d="M70.4689 36.293L60.5977 37.1716L58.7783 42.8296L56.7956 43.1165C53.4075 43.6067 51.391 47.1579 52.7075 50.3161L54.452 54.5013C54.452 54.5013 51.8895 62.4057 55.0367 65.7269L56.376 80.3545L53.3549 89.9975L88.6689 91.1367L82.6536 79.0411L82.4753 71.5309C82.4753 71.5309 86.319 57.9563 82.7554 53.6384L81.365 41.3573L74.1209 40.2713L70.4689 36.293Z" fill="#D12200"/>
<path d="M77.1518 29.0353C78.169 24.6508 75.437 20.2724 71.0497 19.2559C66.6623 18.2393 62.2811 20.9696 61.2639 25.3541C60.2467 29.7386 62.9787 34.117 67.3661 35.1336C71.7534 36.1501 76.1346 33.4199 77.1518 29.0353Z" fill="#FFB6B6"/>
<path d="M56.9768 22.6972C55.7354 18.1741 65.748 14.2954 68.3773 17.9379C68.7429 17.42 70.094 17.1055 70.714 17.2643C71.3339 17.4232 71.8553 17.8203 72.364 18.2048C73.0634 18.7417 73.7882 19.2977 74.2174 20.0697C74.6498 20.8386 74.7165 21.887 74.1347 22.5542C73.6738 23.0848 72.3131 23.4279 71.62 23.5677C71.1368 23.6662 70.7299 23.7456 70.3802 23.8028C70.0686 23.3485 69.9096 22.7861 69.9669 22.2365C69.4964 22.5479 69.1784 23.0816 69.1276 23.6471C69.118 23.7647 73.0348 38.1665 73.0348 38.1665C72.631 38.4048 72.1319 38.6272 71.5564 38.8305C70.5805 37.3595 69.7793 35.6248 69.2516 33.8107C69.1307 34.9322 69.1498 36.149 69.2961 37.3849C69.3724 38.0426 69.4868 38.7034 69.6331 39.3643C64.9788 40.3682 57.9783 40.0378 54.9326 35.7678C54.9321 35.7501 54.9316 35.7325 54.9311 35.7148C54.9093 34.9158 53.8185 34.7172 53.5266 35.4614C53.4527 35.6498 53.3847 35.8128 53.324 35.9425C52.437 32.7718 53.5847 29.1022 56.9768 22.6972Z" fill="#2F2E41"/>
<path d="M126.685 112.749H17.0465L0.0335999 112.959L119.347 105.841C123.327 105.603 126.685 108.765 126.685 112.749Z" fill="#3F3D56"/>
<path d="M153.536 112.58V113H0V0H0.420072V112.58H153.536Z" fill="#3F3D56"/>
<path d="M137.108 26.1359H109.162C108.518 26.1359 107.993 25.6138 107.993 24.9721C107.993 24.3305 108.518 23.8086 109.162 23.8086H137.108C137.752 23.8086 138.277 24.3305 138.277 24.9721C138.277 25.6138 137.752 26.1359 137.108 26.1359Z" fill="#D12200"/>
<path d="M123.125 29.8882C123.02 29.631 122.659 29.631 122.555 29.8883C121.826 31.6834 120.789 33.6936 119.661 35.2299C119.48 35.4759 119.729 35.8045 120.016 35.7007L122.435 34.8263V49.7889H123.244V34.8263L125.664 35.7008C125.951 35.8046 126.2 35.476 126.019 35.23C124.891 33.6937 123.854 31.6834 123.125 29.8882Z" fill="#3F3D56"/>
<path d="M162.28 34.6888H145.05C144.653 34.6888 144.33 34.3669 144.33 33.9713C144.33 33.5757 144.653 33.2539 145.05 33.2539H162.28C162.677 33.2539 163 33.5757 163 33.9713C163 34.3669 162.677 34.6888 162.28 34.6888Z" fill="#F2F2F2"/>
<path d="M153.658 37.0018C153.594 36.8431 153.372 36.8432 153.307 37.0018C152.858 38.1085 152.218 39.3479 151.523 40.295C151.411 40.4467 151.565 40.6493 151.742 40.5853L153.233 40.0462V49.271H153.732V40.0462L155.224 40.5854C155.401 40.6494 155.555 40.4467 155.443 40.2951C154.748 39.3479 154.108 38.1085 153.658 37.0018Z" fill="#F2F2F2"/>
<path d="M153.668 58.1742C155.735 58.1742 157.412 56.4991 157.412 54.4328C157.412 52.3665 155.735 50.6914 153.668 50.6914C151.6 50.6914 149.924 52.3665 149.924 54.4328C149.924 56.4991 151.6 58.1742 153.668 58.1742Z" fill="#F2F2F2"/>
<path d="M107.04 13.4895H89.8107C89.4134 13.4895 89.0901 13.1676 89.0901 12.772C89.0901 12.3764 89.4134 12.0547 89.8107 12.0547H107.04C107.437 12.0547 107.76 12.3764 107.76 12.772C107.76 13.1676 107.437 13.4895 107.04 13.4895Z" fill="#F2F2F2"/>
<path d="M98.4189 15.8025C98.3545 15.6439 98.1321 15.6439 98.0677 15.8026C97.6185 16.9093 96.979 18.1487 96.2833 19.0958C96.172 19.2474 96.3255 19.4501 96.5025 19.3861L97.9937 18.847V28.0718H98.4928V18.847L99.9845 19.3862C100.162 19.4501 100.315 19.2475 100.204 19.0959C99.508 18.1487 98.8684 16.9093 98.4189 15.8025Z" fill="#F2F2F2"/>
<path d="M98.4282 36.975C100.496 36.975 102.172 35.2999 102.172 33.2336C102.172 31.1673 100.496 29.4922 98.4282 29.4922C96.3605 29.4922 94.6844 31.1673 94.6844 33.2336C94.6844 35.2999 96.3605 36.975 98.4282 36.975Z" fill="#F2F2F2"/>
<path d="M55.0228 105.727C55.9062 104.266 55.437 102.366 53.9747 101.483C53.8331 101.397 53.6848 101.323 53.5313 101.261L53.2212 85.8564L48.9364 84.8945L49.4385 103.188C48.9201 104.813 49.8173 106.55 51.4426 107.068C52.8026 107.501 54.2827 106.947 55.0228 105.727Z" fill="#FFB6B6"/>
<path d="M58.0036 44.95C58.0036 44.95 52.7527 43.6906 51.0724 47.2589C49.3921 50.8272 49.2491 66.3549 49.2491 66.3549L48.3419 97.845L55.0025 97.5516L60.314 58.8035L58.0036 44.95Z" fill="#D12200"/>
<path d="M55.6467 110.372C55.7649 110.521 55.9444 110.606 56.134 110.605H90.2313C90.5778 110.605 90.8583 110.324 90.8579 109.978C90.8579 109.935 90.8534 109.892 90.8446 109.85L90.3153 107.337C90.2707 107.129 90.1237 106.958 89.9246 106.882C89.8537 106.854 89.7782 106.84 89.702 106.84H56.6612C56.585 106.84 56.5095 106.854 56.4385 106.882C56.2395 106.958 56.0924 107.129 56.0479 107.337L55.5186 109.85C55.4804 110.034 55.5275 110.226 55.6467 110.372Z" fill="#CCCCCC"/>
<path d="M42.5929 54.1292V93.4352C42.5938 94.4782 43.4396 95.3235 44.4833 95.3243H102.768C103.812 95.3235 104.658 94.4782 104.659 93.4352V54.1292C104.656 53.0872 103.811 52.2435 102.768 52.2422H44.4833C43.4406 52.2435 42.5954 53.0872 42.5929 54.1292Z" fill="#E6E6E6"/>
<path d="M80.9143 86.9203C80.845 86.8972 80.7715 86.8867 80.698 86.8867H67.0625C66.6613 86.8867 66.3336 87.2121 66.3336 87.613V109.14H81.4247V87.613C81.4247 87.296 81.2189 87.0148 80.9143 86.9203ZM75.445 97.5077C75.4408 98.3977 74.7162 99.1155 73.8256 99.1113C72.9414 99.105 72.2272 98.3914 72.223 97.5077V95.0099C72.2314 94.122 72.9603 93.4083 73.8487 93.4167C74.7267 93.4251 75.4366 94.1346 75.445 95.0099V97.5077Z" fill="#CCCCCC"/>
</g>
<defs>
<clipPath id="clip0_5485_9731">
<rect width="163" height="113" fill="white"/>
</clipPath>
</defs>
</svg>
