<svg width="145" height="109" viewBox="0 0 145 109" fill="none" xmlns="http://www.w3.org/2000/svg">
<g clip-path="url(#clip0_5485_9526)">
<path d="M132.493 97.1683L132.711 92.2674C134.98 91.0528 137.51 90.4113 140.083 90.3984C136.542 93.2975 136.985 98.8859 134.584 102.784C133.826 103.995 132.806 105.018 131.599 105.78C130.392 106.542 129.029 107.022 127.612 107.184L124.649 109.001C124.242 106.731 124.332 104.4 124.912 102.168C125.491 99.9361 126.547 97.8566 128.007 96.0728C128.836 95.0802 129.786 94.196 130.835 93.4412C131.545 95.3152 132.493 97.1683 132.493 97.1683Z" fill="#F2F2F2"/>
<path d="M30.7624 53.5966C30.5666 53.4176 30.4123 53.1979 30.3105 52.9528C30.2087 52.7078 30.1618 52.4433 30.1731 52.1781C30.1844 51.9129 30.2536 51.6534 30.3759 51.4179C30.4981 51.1824 30.6705 50.9766 30.8808 50.815L28.8507 44.6914L32.0843 45.5613L33.5163 51.2431C33.764 51.6148 33.8668 52.0646 33.8055 52.5073C33.7441 52.9499 33.5227 53.3546 33.1832 53.6447C32.8438 53.9348 32.4098 54.0902 31.9636 54.0813C31.5175 54.0724 31.09 53.9 30.7624 53.5966Z" fill="#A0616A"/>
<path d="M36.6228 20.3244C37.1593 20.6324 40.3338 19.8693 40.9537 20.0864C40.6115 22.1774 42.4702 21.3927 40.4518 24.1387C38.4334 26.8848 34.368 35.1181 33.4444 38.1953C32.5209 41.2724 33.435 45.609 33.2967 47.0674C33.2298 47.9124 33.234 48.7615 33.3091 49.6058C32.2186 49.592 31.1437 49.8186 30.0361 49.6739C28.8549 46.3269 28.0608 41.5629 27.5215 38.9299C26.9822 36.297 26.9625 37.4105 27.2098 36.0939C27.4572 34.7774 27.5171 35.7341 27.2572 34.4746C26.9974 33.2151 28.0482 31.6326 29.0191 30.7303C29.4377 29.5246 29.9787 28.4003 30.3931 27.2072C33.43 24.5542 33.6297 23.0216 36.6228 20.3244Z" fill="#D12200"/>
<path d="M124.858 105.602H122.175L120.898 95.2383H124.859L124.858 105.602Z" fill="#FFB6B6"/>
<path d="M125.542 108.21L116.891 108.21V108.1C116.891 107.206 117.246 106.348 117.877 105.716C118.509 105.083 119.365 104.728 120.258 104.728L121.839 103.527L124.787 104.728L125.542 104.728L125.542 108.21Z" fill="#2F2E41"/>
<path d="M112.393 105.602H109.71L108.433 95.2383H112.393L112.393 105.602Z" fill="#FFB6B6"/>
<path d="M113.077 108.21L104.425 108.21V108.1C104.425 107.206 104.78 106.348 105.412 105.716C106.043 105.083 106.9 104.728 107.793 104.728L109.373 103.527L112.322 104.728L113.077 104.728L113.077 108.21Z" fill="#2F2E41"/>
<path d="M111.231 48.9453L128.684 49.3822C131.998 51.1851 132.048 55.0871 130.962 59.7198C130.962 59.7198 131.329 62.4734 130.596 63.2077C129.863 63.942 129.496 63.942 129.862 65.227C130.229 66.512 128.292 68.6108 128.527 68.8464C128.763 69.082 129.313 70.367 129.313 70.367L127.479 80.8306C127.479 80.8306 126.196 99.0042 125.83 99.3713C125.463 99.7385 125.096 99.3713 125.463 100.289C125.83 101.207 126.196 100.84 125.83 101.207C125.505 101.558 125.199 101.925 124.913 102.308H120.481C120.481 102.308 120.147 100.473 120.147 100.289C120.147 100.106 119.78 99.0042 119.78 98.8206C119.78 98.637 120.104 98.3125 120.104 98.3125C120.216 97.9394 120.292 97.5562 120.33 97.1685C120.33 96.8013 121.43 82.6663 121.43 82.6663L119.23 64.3091L113.914 82.2992C113.914 82.2992 113.914 98.0863 113.548 98.4535C113.181 98.8206 113.181 98.637 113.364 99.3713C113.548 100.106 114.281 99.922 113.731 100.473C113.181 101.023 112.998 100.106 113.181 101.023L113.364 101.941L107.865 102.02C107.865 102.02 107.132 100.473 107.498 99.9221C107.865 99.3713 107.843 99.5217 107.396 98.6204C106.948 97.7192 106.765 97.5356 106.948 97.352C107.132 97.1685 107.132 96.1921 107.132 96.1921L108.048 78.6277C108.048 78.6277 108.231 60.087 108.231 59.5363C108.245 59.2529 108.193 58.9702 108.079 58.7104V57.9629L108.781 55.3141L111.231 48.9453Z" fill="#2F2E41"/>
<path d="M121.715 12.6025C124.71 12.6025 127.138 10.1713 127.138 7.17233C127.138 4.17335 124.71 1.74219 121.715 1.74219C118.72 1.74219 116.293 4.17335 116.293 7.17233C116.293 10.1713 118.72 12.6025 121.715 12.6025Z" fill="#FFB6B6"/>
<path d="M119.004 16.1939C117.836 16.8894 117.137 18.1672 116.736 19.4676C115.993 21.875 115.546 24.364 115.404 26.8797L114.981 34.4112L109.733 50.4478C114.281 54.3015 131.376 51.3237 131.376 51.3237C131.376 51.3237 131.901 51.1485 131.376 50.623C130.851 50.0975 130.34 50.5631 130.865 50.0376C131.39 49.5121 131.028 50.0975 130.853 49.572C130.678 49.0465 130.853 49.3968 131.028 49.2217C131.203 49.0465 129.674 47.47 129.674 47.47L131.073 38.2648L132.822 19.6972C130.723 17.0697 126.502 15.5208 126.502 15.5208L125.411 13.5547L119.957 13.9916L119.004 16.1939Z" fill="#3F3D56"/>
<path d="M118.26 3.98714C118.47 3.98878 118.679 4.01622 118.882 4.06884C119.282 4.16525 119.689 4.23354 120.099 4.27322C121.354 4.39149 122.534 4.9276 123.449 5.79593C124.365 6.66426 124.963 7.81472 125.149 9.06356C125.464 8.78846 126.181 8.28242 126.769 8.75272C126.777 8.76019 126.783 8.76403 126.803 8.75422C127.194 8.56883 127.886 6.28673 127.907 4.27738C127.918 3.21089 127.751 1.84904 126.89 1.41777L126.844 1.39505L126.832 1.34566C126.775 1.10576 126.132 0.696256 125.014 0.377527C122.984 -0.201692 120.016 -0.285429 118.312 1.37511C118.183 1.93491 117.703 2.0883 117.279 2.22409C116.81 2.37439 116.405 2.5041 116.341 3.08076C116.287 3.90139 116.291 4.72475 116.352 5.54484C116.511 5.04301 116.824 4.60379 117.245 4.28901C117.545 4.087 117.899 3.98165 118.26 3.98714Z" fill="#2F2E41"/>
<path d="M108.167 33.9907L117.025 28.31L112.564 22.3711L108.158 27.7976L94.4323 28.6407C94.0713 28.2833 93.6142 28.0388 93.1169 27.9371C92.6195 27.8353 92.1033 27.8807 91.6313 28.0677C91.1592 28.2546 90.7517 28.5751 90.4584 28.99C90.165 29.4049 89.9986 29.8963 89.9793 30.4042C89.96 30.9122 90.0888 31.4148 90.3498 31.8508C90.6109 32.2868 90.993 32.6373 91.4495 32.8596C91.906 33.0818 92.4173 33.1663 92.9209 33.1026C93.4246 33.039 93.8988 32.8299 94.2859 32.501L108.167 33.9907Z" fill="#FFB6B6"/>
<path d="M125.246 20.3823C125.76 23.4979 116.052 29.4474 116.052 29.4474C116.052 28.7161 110.257 34.2368 109.996 33.6303C109.252 31.9066 108.73 27.8239 107.691 27.1704C107.097 26.7967 111.269 23.286 111.269 23.286C111.269 23.286 113.452 21.0831 116.318 18.3044C117.113 17.5038 118.098 16.9178 119.181 16.6009C120.263 16.284 121.409 16.2466 122.509 16.4921C122.509 16.4921 124.732 17.2667 125.246 20.3823Z" fill="#3385C3"/>
<path d="M115.376 56.152C115.38 59.4861 114.822 62.7971 113.727 65.9456C113.677 66.0919 113.624 66.2361 113.572 66.3825C111.329 72.4813 107.158 77.6794 101.694 81.1853C101.321 81.4257 100.943 81.655 100.559 81.8779C96.1931 84.4124 91.2508 85.7829 86.2047 85.8582C86.0389 85.8604 85.8731 85.8626 85.7073 85.8626C85.4935 85.8626 85.2819 85.8604 85.0703 85.856C80.0175 85.7554 75.075 84.3578 70.7158 81.7971C70.3319 81.572 69.9537 81.3383 69.5814 81.0958C63.5142 77.1572 59.0904 71.1373 57.1397 64.1652C55.1889 57.193 55.8453 49.7477 58.9857 43.2257C59.0555 43.0793 59.1275 42.9351 59.2017 42.7888C61.675 37.8735 65.4627 33.7425 70.1426 30.8561C74.8226 27.9697 80.211 26.4414 85.7073 26.4414C91.2036 26.4414 96.592 27.9697 101.272 30.8561C105.952 33.7425 109.74 37.8735 112.213 42.7888C112.287 42.9351 112.359 43.0793 112.429 43.2257C114.375 47.2557 115.383 51.6754 115.376 56.152Z" fill="#F2F2F2"/>
<path d="M106.196 65.9453V66.3822H108.853V65.9453H106.196ZM100.882 65.9453V66.3822H103.539V65.9453H100.882ZM95.5678 65.9453V66.3822H98.2249V65.9453H95.5678ZM90.2536 65.9453V66.3822H92.9107V65.9453H90.2536ZM84.9394 65.9453V66.3822H87.5965V65.9453H84.9394ZM79.6252 65.9453V66.3822H82.2823V65.9453H79.6252ZM74.311 65.9453V66.3822H76.9681V65.9453H74.311ZM68.999 65.9453V66.3822H71.6539V65.9453H68.999ZM63.6847 65.9453V66.3822H66.3418V65.9453H63.6847ZM58.3705 65.9453V66.3822H61.0276V65.9453H58.3705ZM113.727 65.9453H111.51V66.3822H113.572L113.727 65.9453Z" fill="#E6E6E6"/>
<path d="M111.51 62.8906V63.3275H114.168V62.8906H111.51ZM106.196 62.8906V63.3275H108.853V62.8906H106.196ZM100.882 62.8906V63.3275H103.539V62.8906H100.882ZM95.5679 62.8906V63.3275H98.225V62.8906H95.5679ZM90.2536 62.8906V63.3275H92.9107V62.8906H90.2536ZM84.9394 62.8906V63.3275H87.5965V62.8906H84.9394ZM79.6252 62.8906V63.3275H82.2823V62.8906H79.6252ZM74.311 62.8906V63.3275H76.9681V62.8906H74.311ZM68.999 62.8906V63.3275H71.6539V62.8906H68.999ZM63.6847 62.8906V63.3275H66.3418V62.8906H63.6847ZM58.3705 62.8906V63.3275H61.0276V62.8906H58.3705Z" fill="#E6E6E6"/>
<path d="M111.51 56.5547V56.9916H114.168V56.5547H111.51ZM106.196 56.5547V56.9916H108.853V56.5547H106.196ZM100.882 56.5547V56.9916H103.539V56.5547H100.882ZM95.5679 56.5547V56.9916H98.225V56.5547H95.5679ZM90.2536 56.5547V56.9916H92.9107V56.5547H90.2536ZM84.9394 56.5547V56.9916H87.5965V56.5547H84.9394ZM79.6252 56.5547V56.9916H82.2823V56.5547H79.6252ZM74.311 56.5547V56.9916H76.9681V56.5547H74.311ZM68.999 56.5547V56.9916H71.6539V56.5547H68.999ZM63.6847 56.5547V56.9916H66.3418V56.5547H63.6847ZM58.3705 56.5547V56.9916H61.0276V56.5547H58.3705Z" fill="#E6E6E6"/>
<path d="M111.51 52.1836V52.6205H114.168V52.1836H111.51ZM106.196 52.1836V52.6205H108.853V52.1836H106.196ZM100.882 52.1836V52.6205H103.539V52.1836H100.882ZM95.5679 52.1836V52.6205H98.225V52.1836H95.5679ZM90.2536 52.1836V52.6205H92.9107V52.1836H90.2536ZM84.9394 52.1836V52.6205H87.5965V52.1836H84.9394ZM79.6252 52.1836V52.6205H82.2823V52.1836H79.6252ZM74.311 52.1836V52.6205H76.9681V52.1836H74.311ZM68.999 52.1836V52.6205H71.6539V52.1836H68.999ZM63.6847 52.1836V52.6205H66.3418V52.1836H63.6847ZM58.3705 52.1836V52.6205H61.0276V52.1836H58.3705Z" fill="#E6E6E6"/>
<path d="M112.213 42.7891H111.51V43.226H112.429C112.359 43.0796 112.287 42.9354 112.213 42.7891ZM106.196 42.7891V43.226H108.853V42.7891H106.196ZM100.882 42.7891V43.226H103.539V42.7891H100.882ZM95.5678 42.7891V43.226H98.2249V42.7891H95.5678ZM90.2536 42.7891V43.226H92.9107V42.7891H90.2536ZM84.9394 42.7891V43.226H87.5965V42.7891H84.9394ZM79.6252 42.7891V43.226H82.2823V42.7891H79.6252ZM74.311 42.7891V43.226H76.9681V42.7891H74.311ZM68.9989 42.7891V43.226H71.6539V42.7891H68.9989ZM63.6847 42.7891V43.226H66.3418V42.7891H63.6847ZM59.2017 42.7891C59.1275 42.9354 59.0555 43.0796 58.9857 43.226H61.0276V42.7891H59.2017Z" fill="#E6E6E6"/>
<path d="M101.694 44.2617V81.1859C101.321 81.4262 100.943 81.6556 100.559 81.8784V44.2617H101.694Z" fill="#3F3D56"/>
<path d="M86.2047 56.4961V85.8593C86.0389 85.8615 85.8731 85.8637 85.7073 85.8637C85.4935 85.8637 85.2819 85.8615 85.0703 85.8572V56.4961H86.2047Z" fill="#3F3D56"/>
<path d="M70.7158 44.2617V81.7976C70.3319 81.5725 69.9537 81.3388 69.5814 81.0963V44.2617H70.7158Z" fill="#3F3D56"/>
<path d="M15.1297 94.5181L14.697 88.4911C11.8624 87.0721 8.72483 86.3675 5.55663 86.4385C10.0139 89.8886 9.65684 96.7842 12.7437 101.503C13.7177 102.968 15.0084 104.194 16.52 105.091C18.0316 105.988 19.7254 106.533 21.4759 106.686L25.1854 108.823C25.6097 106.014 25.421 103.147 24.6322 100.418C23.8434 97.69 22.4733 95.1652 20.6163 93.018C19.5626 91.8238 18.363 90.7672 17.0456 89.8732C16.2348 92.2044 15.1297 94.5181 15.1297 94.5181Z" fill="#F2F2F2"/>
<path d="M100.978 47.196C103.267 47.196 105.123 45.3377 105.123 43.0453C105.123 40.7529 103.267 38.8945 100.978 38.8945C98.6889 38.8945 96.8331 40.7529 96.8331 43.0453C96.8331 45.3377 98.6889 47.196 100.978 47.196Z" fill="#D12200"/>
<path d="M103.106 41.3155C103.043 41.2559 102.961 41.2227 102.874 41.2227C102.788 41.2227 102.705 41.2559 102.643 41.3155C101.764 42.0179 100.974 42.8259 100.291 43.7213C100.123 43.3966 99.9558 43.0719 99.7882 42.7472C99.5947 42.3723 99.0298 42.7034 99.2231 43.0779C99.4682 43.5529 99.7133 44.0279 99.9584 44.5028C99.988 44.5513 100.03 44.5914 100.079 44.6192C100.128 44.647 100.184 44.6616 100.241 44.6616C100.298 44.6616 100.354 44.647 100.403 44.6192C100.452 44.5914 100.494 44.5513 100.524 44.5028C101.251 43.4768 102.12 42.5597 103.106 41.7789C103.167 41.7172 103.201 41.6339 103.201 41.5472C103.201 41.4604 103.167 41.3772 103.106 41.3155Z" fill="white"/>
<path d="M85.7073 59.4304C87.9965 59.4304 89.8522 57.572 89.8522 55.2797C89.8522 52.9873 87.9965 51.1289 85.7073 51.1289C83.4181 51.1289 81.5624 52.9873 81.5624 55.2797C81.5624 57.572 83.4181 59.4304 85.7073 59.4304Z" fill="#D12200"/>
<path d="M87.8351 53.5498C87.7727 53.4903 87.6898 53.457 87.6037 53.457C87.5175 53.457 87.4346 53.4903 87.3723 53.5498C86.4928 54.2523 85.7028 55.0603 85.0202 55.9557C84.8526 55.631 84.685 55.3063 84.5175 54.9815C84.324 54.6067 83.7591 54.9378 83.9524 55.3123C84.1975 55.7873 84.4426 56.2622 84.6877 56.7372C84.7173 56.7857 84.7588 56.8257 84.8083 56.8535C84.8577 56.8813 84.9135 56.8959 84.9703 56.8959C85.027 56.8959 85.0828 56.8813 85.1323 56.8535C85.1817 56.8257 85.2232 56.7857 85.2528 56.7372C85.9803 55.7112 86.8497 54.7941 87.8351 54.0133C87.896 53.9515 87.9301 53.8683 87.9301 53.7815C87.9301 53.6948 87.896 53.6115 87.8351 53.5498Z" fill="white"/>
<path d="M70.2184 48.071C72.5076 48.071 74.3633 46.2127 74.3633 43.9203C74.3633 41.6279 72.5076 39.7695 70.2184 39.7695C67.9293 39.7695 66.0735 41.6279 66.0735 43.9203C66.0735 46.2127 67.9293 48.071 70.2184 48.071Z" fill="#D12200"/>
<path d="M72.3462 42.1905C72.2838 42.1309 72.201 42.0977 72.1148 42.0977C72.0286 42.0977 71.9457 42.1309 71.8834 42.1905C71.0039 42.8929 70.2139 43.7009 69.5313 44.5963C69.3637 44.2716 69.1961 43.9469 69.0286 43.6222C68.8351 43.2473 68.2702 43.5784 68.4635 43.9529C68.7086 44.4279 68.9537 44.9029 69.1988 45.3778C69.2284 45.4263 69.2699 45.4664 69.3194 45.4942C69.3689 45.522 69.4246 45.5366 69.4814 45.5366C69.5381 45.5366 69.5939 45.522 69.6434 45.4942C69.6928 45.4664 69.7344 45.4263 69.7639 45.3778C70.4914 44.3518 71.3608 43.4347 72.3462 42.6539C72.4071 42.5922 72.4412 42.5089 72.4412 42.4222C72.4412 42.3354 72.4071 42.2522 72.3462 42.1905Z" fill="white"/>
<path d="M129.66 40.969L132.389 30.7963L125.097 29.4141L125.489 36.3965L115.909 46.2755C115.401 46.2547 114.899 46.3822 114.463 46.6423C114.027 46.9025 113.676 47.2841 113.452 47.7406C113.229 48.1972 113.143 48.7089 113.205 49.2134C113.268 49.718 113.475 50.1935 113.802 50.582C114.13 50.9706 114.563 51.2553 115.049 51.4016C115.535 51.5479 116.053 51.5494 116.54 51.4059C117.027 51.2623 117.462 50.98 117.791 50.5933C118.121 50.2067 118.331 49.7323 118.396 49.2282L129.66 40.969Z" fill="#FFB6B6"/>
<path d="M133.135 19.3903C135.61 21.347 132.433 32.292 132.433 32.292C131.942 31.7514 131.37 39.7402 130.769 39.4682C129.06 38.6951 125.929 36.0291 124.721 36.2464C124.031 36.3707 124.754 30.9623 124.754 30.9623C124.754 30.9623 124.887 27.8612 125.137 23.8746C125.187 22.7463 125.521 21.6489 126.108 20.6846C126.696 19.7203 127.517 18.9205 128.496 18.3596C128.496 18.3596 130.66 17.4336 133.135 19.3903Z" fill="#3385C3"/>
<path d="M47.6467 42.227L50.6465 55.6331L31.4232 54.4357L36.6506 41.2695L47.6467 42.227Z" fill="#A0616A"/>
<path d="M44.4457 104.103L46.605 104.102L47.6323 95.7617H44.4453L44.4457 104.103Z" fill="#A0616A"/>
<path d="M43.7144 103.036L47.1279 102.832V104.297L50.3732 106.541C50.5335 106.652 50.6542 106.811 50.7178 106.996C50.7813 107.18 50.7843 107.38 50.7263 107.566C50.6683 107.752 50.5524 107.915 50.3955 108.031C50.2386 108.146 50.0489 108.209 49.8541 108.209H45.7902L45.0897 106.76L44.8162 108.209H43.284L43.7144 103.036Z" fill="#2F2E41"/>
<path d="M24.0366 103.026L26.147 103.485L28.9167 95.5516L25.8021 94.875L24.0366 103.026Z" fill="#A0616A"/>
<path d="M23.5479 101.828L26.927 102.353L26.6169 103.785L29.3133 106.667C29.4465 106.809 29.5308 106.991 29.5538 107.184C29.5768 107.378 29.5375 107.574 29.4414 107.744C29.3453 107.914 29.1976 108.048 29.0197 108.128C28.8419 108.207 28.6433 108.228 28.453 108.187L24.4814 107.324L24.1036 105.759L23.5296 107.117L22.0322 106.792L23.5479 101.828Z" fill="#2F2E41"/>
<path d="M51.1373 66.8469C49.6218 75.1873 49.243 78.7884 49.243 78.7884C49.243 78.7884 50.3796 80.1152 49.6218 80.874C48.8641 81.6328 49.6218 83.1483 49.6218 83.1483L47.918 101.535L46.5465 101.313L43.2425 100.781L42.0509 100.588L42.8086 83.339C42.8086 83.339 42.0509 81.8214 42.4298 81.442C42.8086 81.0626 42.0509 78.7884 42.0509 78.7884L41.1048 60.7807L35.2355 80.4946C35.2355 80.4946 35.8049 81.2534 35.2355 81.8214C34.6683 82.3895 33.5338 85.2339 33.5338 85.2339L30.0436 97.4637L29.7473 98.5022L27.927 98.161L25.9459 97.788L25.5819 97.7201L24.9342 97.5972L24.5173 97.5188L24.3754 97.4934L23.6897 97.364L23.8971 96.4421L24.005 95.9567L26.9577 82.824L27.0254 82.5209L27.0974 82.2009C27.0974 82.2009 26.7185 81.2534 27.2857 80.6833C27.4517 80.5095 27.5729 80.2979 27.6389 80.0667C27.7049 79.8356 27.7137 79.5918 27.6646 79.3564C27.646 79.3366 27.629 79.3153 27.6138 79.2928C27.5468 79.2007 27.5006 79.0951 27.4783 78.9834C27.4275 78.746 27.472 78.4132 27.8551 78.0296C27.963 77.9148 28.0535 77.7848 28.1239 77.6438C28.6996 76.5523 28.9896 74.2398 28.9896 74.2398C28.9896 74.2398 29.5018 55.9249 31.1781 53.1271C31.267 52.9808 33.0465 50.1732 33.1397 50.1159C35.0319 48.9798 49.7739 50.549 49.7739 50.549C49.7739 50.549 50.6668 52.9511 50.7071 53.2012C50.9251 54.6065 52.4221 59.7718 51.1373 66.8469Z" fill="#2F2E41"/>
<path d="M46.6579 22.7299C46.6579 22.7299 46.9768 21.0718 43.9117 18.0023C42.2889 17.4606 39.4773 17.7763 38.5025 18.0023C33.9949 23.9607 34.802 22.9094 33.6286 26.2386C33.3244 27.1019 33.1722 27.9313 33.3075 28.6084C33.8484 31.3168 34.7265 45.2195 34.5462 45.9417C34.3659 46.664 33.1038 47.5668 34.3659 47.5668C35.6281 47.5668 51.9044 47.2815 51.5438 46.7398C51.1832 46.1981 46.6579 22.7299 46.6579 22.7299Z" fill="#D12200"/>
<path d="M65.9884 44.7603C65.7412 44.8561 65.476 44.8965 65.2116 44.8786C64.9471 44.8608 64.6898 44.785 64.4577 44.6568C64.2256 44.5285 64.0245 44.3509 63.8684 44.1364C63.7123 43.9219 63.605 43.6757 63.5542 43.4152L57.1751 42.5078L59.3931 39.9961L65.1108 41.2428C65.5535 41.1864 66.0015 41.2945 66.3699 41.5466C66.7383 41.7988 67.0016 42.1776 67.1098 42.6112C67.2179 43.0448 67.1635 43.503 66.9569 43.8991C66.7502 44.2952 66.4056 44.6016 65.9884 44.7603Z" fill="#A0616A"/>
<path d="M38.9998 21.6637C39.5142 21.3198 40.0984 21.1584 40.5687 20.6992C42.2857 21.9374 42.4121 19.9214 43.9682 22.9542C45.5243 25.987 51.0747 33.2992 53.4146 35.4978C55.7544 37.6964 60.0387 38.8084 61.281 39.582C62.0068 40.0183 62.7678 40.3928 63.5561 40.7015C63.058 41.6731 62.7819 42.7378 62.1591 43.6663C58.6406 43.2346 54.0275 41.8247 51.4333 41.1355C48.8391 40.4462 49.8258 40.9599 48.7589 40.1517C47.6919 39.3436 48.574 39.716 47.3322 39.3879C46.0904 39.0599 45.1435 37.4129 44.7693 36.1406C43.8777 35.2282 43.1135 34.2424 42.2314 33.3394C41.2121 29.4349 40.0782 25.5486 38.9998 21.6637Z" fill="#D12200"/>
<path d="M43.0279 15.6911C45.9114 15.6911 48.2489 13.3503 48.2489 10.4627C48.2489 7.57519 45.9114 5.23438 43.0279 5.23438C40.1444 5.23438 37.8069 7.57519 37.8069 10.4627C37.8069 13.3503 40.1444 15.6911 43.0279 15.6911Z" fill="#A0616A"/>
<path d="M46.5162 20.0185C46.2687 19.6646 44.4184 16.1554 43.8684 14.8283C43.8119 15.1157 43.7762 15.4068 43.7616 15.6993L43.7562 15.8084L43.6481 15.8224C43.4855 15.8432 39.6455 16.3099 37.6471 14.0407C36.4631 12.6965 36.1946 10.6804 36.848 8.04707C36.7291 8.02371 36.6153 7.97979 36.5115 7.91729C36.3387 7.79751 36.194 7.64143 36.0876 7.45993C35.9813 7.27842 35.9157 7.07586 35.8955 6.86638L35.7849 6.89609C32.2296 5.16363 35.2926 0.0955993 38.5399 2.61532C38.8248 2.55158 39.1217 2.56867 39.3974 2.66466C39.6632 2.77298 39.8949 2.95132 40.0678 3.18077C40.2406 3.41023 40.3483 3.68224 40.3793 3.96799C42.0572 3.08422 44.2778 3.22804 45.4262 3.89112C45.9071 4.16879 46.1832 4.5185 46.2322 4.90862C47.5888 4.98448 49.0478 6.30771 49.0478 8.18247V8.31302H48.9174C48.3716 8.32466 47.8393 8.48471 47.3775 8.77606C46.9156 9.06741 46.5416 9.47907 46.2954 9.96696C45.9618 10.5705 45.7967 11.2529 45.8175 11.9424C45.8382 12.6319 46.044 13.3031 46.4133 13.8854C46.8152 14.5031 47.0896 15.195 47.2204 15.9205C47.3511 16.646 47.3356 17.3904 47.1746 18.1098L46.6847 20.2594L46.5162 20.0185Z" fill="#2F2E41"/>
<path d="M61.6654 108.252C61.6655 108.286 61.6589 108.32 61.6458 108.352C61.6328 108.383 61.6137 108.412 61.5896 108.436C61.5655 108.46 61.5368 108.48 61.5053 108.493C61.4737 108.506 61.4399 108.512 61.4058 108.512H0.259603C0.190752 108.512 0.12472 108.485 0.0760354 108.436C0.0273505 108.387 0 108.321 0 108.252C0 108.183 0.0273505 108.117 0.0760354 108.068C0.12472 108.02 0.190752 107.992 0.259603 107.992H61.4058C61.4399 107.992 61.4737 107.999 61.5053 108.012C61.5368 108.025 61.5655 108.044 61.5896 108.068C61.6137 108.092 61.6328 108.121 61.6458 108.153C61.6589 108.184 61.6655 108.218 61.6654 108.252Z" fill="#CCCCCC"/>
<path d="M145 108.252C145 108.286 144.993 108.32 144.98 108.352C144.967 108.383 144.948 108.412 144.924 108.436C144.9 108.46 144.871 108.48 144.84 108.493C144.808 108.506 144.775 108.512 144.74 108.512H83.5942C83.5253 108.512 83.4593 108.485 83.4106 108.436C83.362 108.387 83.3346 108.321 83.3346 108.252C83.3346 108.183 83.362 108.117 83.4106 108.068C83.4593 108.02 83.5253 107.992 83.5942 107.992H144.74C144.775 107.992 144.808 107.999 144.84 108.012C144.871 108.025 144.9 108.044 144.924 108.068C144.948 108.092 144.967 108.121 144.98 108.153C144.993 108.184 145 108.218 145 108.252Z" fill="#CCCCCC"/>
<path d="M70.0896 89.5179C71.3656 89.5179 72.4 88.482 72.4 87.2042C72.4 85.9265 71.3656 84.8906 70.0896 84.8906C68.8136 84.8906 67.7792 85.9265 67.7792 87.2042C67.7792 88.482 68.8136 89.5179 70.0896 89.5179Z" fill="#E6E6E6"/>
<path d="M85.5785 91.9202C86.8545 91.9202 87.8888 90.8844 87.8888 89.6066C87.8888 88.3288 86.8545 87.293 85.5785 87.293C84.3025 87.293 83.2681 88.3288 83.2681 89.6066C83.2681 90.8844 84.3025 91.9202 85.5785 91.9202Z" fill="#E6E6E6"/>
<path d="M101.067 89.0804C102.343 89.0804 103.378 88.0445 103.378 86.7667C103.378 85.489 102.343 84.4531 101.067 84.4531C99.7914 84.4531 98.757 85.489 98.757 86.7667C98.757 88.0445 99.7914 89.0804 101.067 89.0804Z" fill="#E6E6E6"/>
</g>
<defs>
<clipPath id="clip0_5485_9526">
<rect width="145" height="109" fill="white"/>
</clipPath>
</defs>
</svg>
